<?xml version="1.0" encoding="UTF-8" standalone="no"?>
<!DOCTYPE svg PUBLIC "-//W3C//DTD SVG 1.1//EN" "http://www.w3.org/Graphics/SVG/1.1/DTD/svg11.dtd">
<svg xmlns="http://www.w3.org/2000/svg" version="1.1" viewBox="0.00 0.00 500.00 500.00">
<path fill="#4b078e" d="
  M 230.77 104.77
  A 0.61 0.60 -10.5 0 1 231.37 103.90
  Q 236.85 104.41 241.97 106.55
  C 262.57 115.15 272.84 138.09 273.99 159.50
  Q 274.78 174.32 266.84 185.70
  C 263.49 190.49 257.94 193.93 252.34 194.58
  Q 249.80 194.88 245.74 194.45
  C 240.31 193.87 237.78 193.60 232.98 190.82
  C 224.77 186.06 224.21 171.23 227.07 163.12
  Q 229.46 156.33 230.72 153.96
  C 234.37 147.12 241.19 137.66 240.49 128.31
  Q 239.86 119.86 236.47 113.38
  C 234.96 110.49 232.01 107.31 230.77 104.77
  Z
  M 254.43 139.40
  Q 253.34 139.66 252.77 141.00
  Q 252.00 142.79 250.87 145.62
  Q 250.12 147.48 243.30 159.55
  Q 239.55 166.18 239.70 176.01
  Q 239.73 178.13 241.58 179.18
  Q 249.98 183.93 255.87 177.10
  A 3.43 3.41 -12.3 0 0 256.38 176.31
  Q 258.45 171.85 258.73 170.23
  Q 260.32 161.14 259.04 150.77
  C 258.59 147.11 257.08 144.26 256.30 140.56
  A 1.56 1.52 -12.5 0 0 254.43 139.40
  Z"
/>
<path fill="#4b078e" d="
  M 287.94 304.18
  A 0.81 0.81 0.0 0 1 289.03 303.61
  C 303.64 309.48 317.83 315.53 322.17 332.12
  C 322.98 335.21 322.82 338.95 323.40 342.10
  A 0.83 0.82 70.4 0 0 324.61 342.68
  Q 326.66 341.57 328.14 339.90
  Q 344.73 321.22 354.51 303.29
  Q 361.17 291.08 366.20 275.64
  Q 367.51 271.61 368.18 267.07
  C 368.77 263.00 369.91 259.66 370.21 255.55
  Q 372.01 231.15 364.87 208.93
  Q 364.75 208.55 364.55 208.47
  A 1.06 0.98 -75.9 0 0 363.19 209.36
  Q 362.67 213.59 360.07 216.97
  A 2.89 2.71 -83.7 0 1 359.18 217.73
  Q 353.95 220.57 349.73 220.05
  Q 343.92 219.33 338.07 215.43
  C 328.25 208.89 322.95 198.68 317.43 188.12
  A 0.95 0.95 0.0 0 1 318.24 186.73
  Q 329.23 186.44 340.34 189.53
  Q 346.37 191.21 350.62 193.96
  Q 355.77 197.30 359.37 201.14
  A 0.83 0.82 44.1 0 0 360.58 201.13
  Q 361.15 200.49 360.70 199.55
  Q 356.65 190.97 352.58 184.07
  A 2.23 2.22 -9.3 0 0 351.11 183.02
  C 336.60 179.96 331.69 166.95 330.17 153.94
  Q 328.67 141.12 328.88 129.81
  A 0.90 0.89 -77.2 0 1 330.14 129.01
  Q 331.04 129.41 332.41 130.47
  C 342.66 138.43 352.36 149.92 355.58 162.26
  Q 356.59 166.15 355.91 174.85
  A 7.60 7.47 58.5 0 1 355.41 177.01
  C 354.07 180.43 353.21 182.06 355.06 185.00
  C 364.98 200.72 372.32 218.36 373.62 236.97
  Q 374.79 253.66 372.94 265.99
  Q 370.73 280.71 364.42 298.01
  Q 359.97 310.17 353.08 321.64
  Q 345.45 334.32 338.37 343.37
  Q 331.27 352.44 324.01 360.26
  Q 309.12 376.30 290.94 393.67
  C 289.26 395.28 287.89 394.93 286.63 393.13
  Q 283.88 389.21 283.25 385.75
  A 2.68 2.68 0.0 0 1 284.32 383.10
  Q 292.58 377.14 298.96 371.21
  Q 312.01 359.07 318.74 352.24
  Q 319.07 351.90 319.31 351.42
  A 1.12 1.12 0.0 0 0 318.65 349.85
  L 309.34 346.92
  A 1.62 1.15 -9.6 0 1 309.03 346.77
  Q 302.73 342.61 299.89 338.35
  Q 294.21 329.81 291.11 318.92
  Q 288.37 309.27 288.00 307.00
  Q 287.71 305.21 287.94 304.18
  Z"
/>
<path fill="#4b078e" d="
  M 185.91 351.07
  A 0.44 0.44 0.0 0 0 186.46 350.58
  Q 183.24 329.53 199.78 316.78
  C 205.62 312.29 210.81 307.84 216.90 305.11
  A 0.56 0.55 -16.7 0 1 217.67 305.52
  Q 218.09 307.77 217.80 310.25
  C 215.83 327.63 211.42 349.83 191.43 354.42
  A 0.77 0.77 0.0 0 0 191.05 355.70
  Q 199.52 364.55 208.74 370.74
  Q 222.20 379.76 229.56 384.13
  A 1.86 1.85 22.5 0 1 230.42 386.19
  Q 229.09 391.43 226.73 394.79
  A 1.75 1.75 0.0 0 1 224.68 395.42
  Q 223.17 394.83 221.57 393.77
  Q 210.64 386.52 199.75 377.37
  Q 186.36 366.14 177.39 357.17
  Q 170.36 350.14 159.84 336.43
  Q 147.19 319.94 139.61 304.67
  Q 133.88 293.13 129.00 274.09
  C 127.74 269.17 127.45 262.99 127.03 257.74
  Q 126.13 246.37 126.70 242.00
  Q 127.58 235.30 127.87 232.70
  C 128.36 228.32 129.44 225.88 130.08 222.21
  Q 130.33 220.83 131.54 218.21
  Q 132.28 216.62 134.60 210.32
  Q 137.51 202.43 140.93 196.68
  Q 142.60 193.87 141.07 191.51
  Q 136.84 184.99 136.94 177.27
  Q 136.96 175.70 138.23 170.44
  C 141.31 157.61 149.78 145.63 159.69 136.97
  A 0.96 0.96 0.0 0 1 161.23 137.39
  Q 162.14 140.14 162.30 143.77
  C 162.84 155.70 163.19 165.19 160.30 175.62
  Q 158.59 181.80 154.84 186.35
  C 151.68 190.19 148.78 191.36 144.33 192.81
  A 1.99 1.98 -86.0 0 0 143.15 193.84
  L 138.80 203.04
  A 4.61 4.42 62.3 0 0 138.41 204.39
  Q 138.08 207.01 136.66 209.48
  A 1.61 1.61 0.0 0 0 136.58 210.92
  L 136.95 211.78
  A 0.36 0.36 0.0 0 0 137.60 211.81
  L 139.05 208.97
  A 1.60 1.53 -10.0 0 1 139.33 208.59
  Q 144.01 204.04 148.28 201.76
  Q 157.94 196.59 162.93 195.41
  Q 167.42 194.34 173.75 193.01
  Q 175.63 192.61 176.95 192.77
  A 1.44 1.44 0.0 0 1 178.22 194.35
  Q 177.94 197.16 176.13 200.14
  Q 171.78 207.32 167.43 214.69
  C 163.18 221.90 157.46 228.27 148.31 230.14
  Q 142.18 231.39 137.71 227.88
  A 2.19 2.16 -83.3 0 1 137.07 227.06
  L 134.63 221.43
  A 0.45 0.45 0.0 0 0 133.89 221.31
  Q 132.67 222.65 132.30 224.76
  C 130.59 234.71 129.11 244.92 130.20 254.53
  Q 130.22 254.76 131.45 264.07
  C 133.29 277.95 138.81 291.69 145.90 303.66
  C 150.78 311.91 156.83 320.81 163.80 328.54
  Q 181.42 348.09 181.77 348.47
  Q 183.59 350.46 185.91 351.07
  Z
  M 135.4688 213.2624
  A 2.96 0.70 -87.7 0 0 134.6506 216.1919
  A 2.96 0.70 -87.7 0 0 135.2312 219.1776
  A 2.96 0.70 -87.7 0 0 136.0494 216.2481
  A 2.96 0.70 -87.7 0 0 135.4688 213.2624
  Z"
/>
<path fill="#4b078e" d="
  M 418.92 186.89
  Q 412.84 195.03 410.79 197.29
  Q 402.24 206.66 392.76 210.49
  C 386.60 212.97 371.05 213.62 371.97 202.48
  C 372.53 195.65 376.74 190.88 382.06 186.58
  C 386.44 183.04 392.21 182.86 397.55 182.38
  A 3.54 3.49 45.4 0 1 398.25 182.39
  L 418.06 184.86
  A 1.28 1.27 -68.1 0 1 418.92 186.89
  Z"
/>
<path fill="#4b078e" d="
  M 77.28 205.31
  A 0.88 0.88 0.0 0 1 77.47 204.16
  Q 79.62 202.42 82.25 201.76
  Q 89.56 199.93 98.50 199.41
  Q 102.91 199.15 105.74 199.77
  C 115.61 201.94 125.56 203.40 125.65 216.26
  Q 125.68 219.71 123.09 222.05
  Q 117.61 227.02 110.21 226.72
  C 107.08 226.59 101.37 225.06 97.99 223.26
  C 90.02 219.02 82.13 213.01 77.28 205.31
  Z"
/>
<path fill="#4b078e" d="
  M 250.13 203.56
  Q 279.53 203.55 281.41 203.58
  Q 285.87 203.63 287.02 204.19
  C 291.45 206.32 292.03 209.91 290.72 214.83
  Q 290.50 215.66 288.92 221.47
  Q 276.59 266.72 269.84 290.78
  Q 253.43 349.22 253.42 349.89
  Q 253.40 350.49 252.59 352.62
  Q 251.80 354.68 251.49 355.24
  Q 251.03 356.07 250.18 356.07
  Q 249.33 356.07 248.87 355.24
  Q 248.56 354.68 247.77 352.62
  Q 246.96 350.49 246.94 349.89
  Q 246.93 349.22 230.48 290.79
  Q 223.71 266.74 211.35 221.50
  Q 209.77 215.69 209.54 214.86
  C 208.23 209.94 208.81 206.35 213.24 204.21
  Q 214.39 203.65 218.84 203.60
  Q 220.73 203.57 250.13 203.56
  Z"
/>
<path fill="#4b078e" d="
  M 361.21 260.70
  C 358.36 264.51 352.52 264.52 348.22 263.53
  C 332.83 259.99 325.37 244.37 319.28 231.51
  Q 318.62 230.12 319.24 229.29
  Q 319.86 228.46 321.38 228.70
  C 335.44 230.92 352.53 233.68 360.27 247.45
  C 362.42 251.29 364.06 256.89 361.21 260.70
  Z"
/>
<path fill="#4b078e" d="
  M 425.51 235.74
  Q 425.05 237.08 423.03 239.78
  Q 423.01 239.81 416.83 247.41
  Q 412.65 252.53 410.09 254.52
  Q 402.53 260.37 393.45 261.97
  C 385.76 263.32 377.95 258.13 379.49 249.46
  C 380.64 242.99 384.41 239.54 389.90 236.64
  Q 392.50 235.27 394.75 234.72
  Q 410.33 230.94 425.04 234.86
  A 0.68 0.68 0.0 0 1 425.51 235.74
  Z"
/>
<path fill="#4b078e" d="
  M 179.33 235.16
  A 1.12 1.11 11.1 0 1 180.34 236.65
  C 175.10 251.08 167.61 270.03 151.03 273.78
  C 149.04 274.23 144.43 273.96 142.50 272.61
  C 137.97 269.45 140.36 260.54 142.09 256.18
  C 145.02 248.78 154.64 242.10 161.39 239.89
  Q 173.61 235.89 176.36 235.38
  Q 177.83 235.11 179.33 235.16
  Z"
/>
<path fill="#4b078e" d="
  M 74.91 255.41
  Q 76.23 254.27 77.97 253.69
  Q 90.54 249.49 102.00 250.38
  Q 105.70 250.67 112.98 253.27
  Q 117.80 255.00 119.90 257.71
  C 124.36 263.46 124.16 272.65 116.33 275.59
  Q 114.15 276.41 108.01 277.46
  A 4.30 4.14 -43.9 0 1 106.54 277.46
  C 98.77 276.07 94.24 274.99 88.72 270.29
  Q 81.24 263.92 74.83 257.48
  A 1.42 1.41 47.3 0 1 74.91 255.41
  Z"
/>
<path fill="#4b078e" d="
  M 307.97 262.21
  A 0.79 0.78 14.8 0 1 308.98 261.63
  Q 317.69 264.42 326.80 268.74
  C 337.13 273.64 345.07 285.73 346.25 296.99
  C 346.59 300.27 344.04 304.59 340.21 305.18
  C 327.82 307.10 318.64 294.81 314.75 284.79
  Q 310.23 273.14 308.12 264.97
  Q 307.71 263.39 307.97 262.21
  Z"
/>
<path fill="#4b078e" d="
  M 193.37 266.28
  A 0.46 0.46 0.0 0 1 194.01 266.73
  Q 193.01 284.53 185.14 299.83
  C 181.00 307.86 172.75 314.30 163.25 311.70
  A 2.29 2.29 0.0 0 1 161.62 310.01
  Q 157.87 294.06 168.97 282.89
  Q 179.76 272.02 193.37 266.28
  Z"
/>
<path fill="#4b078e" d="
  M 411.22 294.35
  C 410.55 296.35 406.62 300.43 402.69 304.95
  Q 398.53 309.73 391.91 314.46
  Q 385.06 319.34 377.01 319.92
  Q 374.61 320.09 370.47 318.01
  Q 365.16 315.35 365.10 309.50
  C 365.02 301.91 369.46 296.46 376.28 293.77
  Q 387.85 289.19 401.24 290.42
  Q 405.47 290.81 410.53 292.87
  A 1.20 1.19 20.1 0 1 411.22 294.35
  Z"
/>
<path fill="#4b078e" d="
  M 94.19 309.73
  C 96.01 308.49 97.00 308.45 98.90 307.97
  Q 109.04 305.45 119.76 305.41
  Q 125.60 305.39 130.95 307.17
  C 137.06 309.20 140.11 312.37 142.06 318.50
  C 144.77 327.01 136.54 332.17 129.24 332.25
  C 120.05 332.34 112.98 329.93 105.88 323.76
  Q 99.55 318.26 94.01 310.85
  A 0.79 0.78 54.5 0 1 94.19 309.73
  Z"
/>
<path fill="#4b078e" d="
  M 379.77 348.84
  Q 379.90 349.14 379.41 349.93
  Q 371.69 362.51 360.29 370.75
  C 353.05 375.99 341.67 378.95 334.52 372.01
  Q 333.34 370.87 332.66 369.30
  Q 331.98 367.73 331.95 366.09
  C 331.76 356.12 341.69 349.83 350.46 348.12
  Q 364.27 345.41 378.73 348.36
  Q 379.64 348.55 379.77 348.84
  Z"
/>
<path fill="#4b078e" d="
  M 130.76 363.02
  A 0.78 0.77 -40.6 0 1 130.85 361.89
  Q 132.27 360.74 135.76 359.78
  Q 136.52 359.57 148.19 357.72
  Q 159.88 355.87 170.09 359.92
  Q 177.19 362.73 179.17 369.90
  C 181.64 378.86 173.48 384.77 165.50 384.82
  Q 154.35 384.89 145.54 377.43
  Q 138.48 371.46 130.76 363.02
  Z"
/>
</svg>
