<?xml version="1.0" encoding="UTF-8"?>
<svg version="1.1" xmlns="http://www.w3.org/2000/svg" width="500" height="500">
<path d="M0 0 C4.74044017 3.73183588 7.36799485 7.99986983 8.3203125 14.02734375 C9.16481657 29.59436877 -0.81627791 42.23989816 -10.46777344 53.24560547 C-12.54917865 55.6288078 -14.59888246 58.03840384 -16.64990234 60.44775391 C-18.16136746 62.21936957 -19.68106524 63.98357748 -21.203125 65.74609375 C-22.94469845 67.76355418 -24.6585948 69.79489339 -26.359375 71.84765625 C-27.04515625 72.66105469 -27.7309375 73.47445312 -28.4375 74.3125 C-29.01371094 75.00988281 -29.58992188 75.70726562 -30.18359375 76.42578125 C-32.4038094 78.34996815 -34.11882466 78.65900326 -37 79 C-37.33 78.34 -37.66 77.68 -38 77 C-37.24658203 75.17504883 -37.24658203 75.17504883 -36.0078125 72.95703125 C-35.5543042 72.13799316 -35.1007959 71.31895508 -34.63354492 70.47509766 C-34.1357251 69.59644043 -33.63790527 68.7177832 -33.125 67.8125 C-32.62266846 66.91063965 -32.12033691 66.0087793 -31.6027832 65.07958984 C-28.58016691 59.68619104 -25.43312132 54.38614439 -22.1875 49.125 C-15.11849642 37.62442483 -8.63460794 24.7799568 -10 11 C-11.23330128 7.97841187 -12.15637005 6.65615663 -14.6875 4.6875 C-26.25898273 1.24732946 -40.36652824 7.75650649 -50.5 13.0625 C-64.53783247 20.70314031 -77.03115586 30.48090317 -89 41 C-89.68835938 41.5775 -90.37671875 42.155 -91.0859375 42.75 C-109.94932194 58.4004779 -109.94932194 58.4004779 -119.91796875 79.9375 C-120.15288784 85.84403704 -117.85672745 89.7866264 -114 94 C-111.53855893 95.91537098 -108.93749486 97.54080374 -106.26953125 99.15234375 C-105.48689407 99.62679428 -104.7042569 100.10124481 -103.89790344 100.59007263 C-93.63788495 106.61646041 -82.66454033 111.03131424 -71.6875 115.5625 C-59.49928683 120.64005814 -47.32883893 125.72143836 -35.38671875 131.359375 C-34.53792648 131.75673355 -33.68913422 132.1540921 -32.81462097 132.56349182 C-25.83036007 135.90967874 -19.85903854 139.89975498 -14 145 C-13.29617187 145.57105469 -12.59234375 146.14210938 -11.8671875 146.73046875 C-6.01902023 151.88126042 -3.28654718 158.65152086 -2.77734375 166.37890625 C-3.01997278 170.32482055 -3.84874272 173.65993705 -5 177.4375 C-5.556875 179.29181641 -5.556875 179.29181641 -6.125 181.18359375 C-6.41375 182.11300781 -6.7025 183.04242188 -7 184 C-5.68 184.33 -4.36 184.66 -3 185 C-5 187 -5 187 -7.703125 188.20703125 C-11.82699087 190.44974977 -14.54740131 193.30524551 -17.75 196.6875 C-38.41624636 217.86011272 -68.36146604 235.44734601 -98.75 236.3125 C-106.14030856 235.99057368 -113.62496011 235.56038609 -119 230 C-118.30895748 224.86529167 -116.62994967 223.06335507 -112.703125 219.87109375 C-90.79823167 204.70860255 -62.7105026 197.32935658 -37.46435547 189.96923828 C-35.71856201 189.44885986 -35.71856201 189.44885986 -33.9375 188.91796875 C-32.87660156 188.60496826 -31.81570312 188.29196777 -30.72265625 187.96948242 C-26.35561346 186.41446745 -24.23378273 184.26955094 -22.05078125 180.25390625 C-19.32550767 174.12512358 -18.84353778 167.85487405 -20.7734375 161.421875 C-26.28141114 148.68712743 -39.14743808 143.48312101 -51 138 C-51.70253906 137.6695166 -52.40507812 137.3390332 -53.12890625 136.99853516 C-61.74293688 132.9553343 -70.46534204 129.19582145 -79.2734375 125.59765625 C-80.00839447 125.29710327 -80.74335144 124.99655029 -81.50057983 124.68688965 C-85.16921878 123.1886817 -88.84114851 121.69946108 -92.51904297 120.22412109 C-99.69193588 117.3273358 -106.73538834 114.26527297 -113.6640625 110.8203125 C-114.31119202 110.49969345 -114.95832153 110.1790744 -115.62506104 109.84873962 C-125.15962201 105.01462956 -133.84293726 98.9914237 -139.375 89.6875 C-141.58497343 80.18461425 -139.16923979 72.96697376 -134.17285156 64.74609375 C-130.7344798 59.62718558 -126.35607627 55.330787 -122 51 C-121.30777344 50.27167969 -120.61554688 49.54335937 -119.90234375 48.79296875 C-114.68175367 43.35798072 -108.9191901 38.64835533 -103 34 C-102.36352539 33.49774902 -101.72705078 32.99549805 -101.07128906 32.47802734 C-83.13484395 18.37419225 -64.77080591 6.36858046 -43 -1 C-42.09765625 -1.3196875 -41.1953125 -1.639375 -40.265625 -1.96875 C-28.49186321 -5.56074512 -10.70911167 -7.07772823 0 0 Z M-36.52075195 194.67407227 C-40.1244358 195.95350445 -43.72531743 197.2375595 -47.3125 198.5625 C-48.30484146 198.92655945 -48.30484146 198.92655945 -49.31723022 199.29797363 C-59.71380332 203.13625652 -69.82284719 207.45451623 -79.8125 212.25 C-81.00206299 212.81533447 -82.19162598 213.38066895 -83.41723633 213.96313477 C-90.25024187 217.31979317 -96.22228386 221.03294477 -102 226 C-101.67 226.66 -101.34 227.32 -101 228 C-78.68032656 228.61724761 -55.3648965 216.421389 -39 202 C-36.60082679 199.72573886 -34.26886501 197.40409537 -32 195 C-34.02894697 193.70923782 -34.02894697 193.70923782 -36.52075195 194.67407227 Z " fill="#351B6D" transform="translate(192,151)"/>
<path d="M0 0 C0.99 0 1.98 0 3 0 C3 0.66 3 1.32 3 2 C3.556875 2.185625 4.11375 2.37125 4.6875 2.5625 C8.13717753 4.70689414 10.18534125 7.37753027 12 11 C12.66058716 13.99568594 12.84997071 16.94171059 13 20 C13.54546966 24.00011087 14.78009419 26.62188246 17 30 C17.5878125 28.8553125 17.5878125 28.8553125 18.1875 27.6875 C20.29191983 24.56715336 21.52255738 23.43633499 25 22 C29.50277954 21.5569716 33.64081896 21.77428923 38 23 C36.96077352 28.455939 34.54166279 30.75736458 30.16796875 33.80859375 C26.54394614 35.80017374 23.05262698 36 19 36 C19.33 36.99 19.66 37.98 20 39 C20.22692934 42.05839724 20.18516135 45.12153321 20.1875 48.1875 C20.19974609 49.01314453 20.21199219 49.83878906 20.22460938 50.68945312 C20.23747552 56.13183431 19.5251509 60.77349474 18 66 C18.59780273 65.83701416 19.19560547 65.67402832 19.81152344 65.50610352 C22.66259337 64.84676974 25.32729165 64.90573143 28.25 64.9375 C29.32765625 64.94652344 30.4053125 64.95554687 31.515625 64.96484375 C32.33546875 64.97644531 33.1553125 64.98804688 34 65 C34.74609375 66.70703125 34.74609375 66.70703125 35 69 C32.18312531 73.11803549 28.43927469 77.06278297 23.72265625 78.875 C19.90192132 79.44419701 18.24050815 79.16033877 15 77 C15 76.34 15 75.68 15 75 C14.34 75 13.68 75 13 75 C12.62875 76.299375 12.62875 76.299375 12.25 77.625 C10.92199976 81.21060064 9.31369152 83.96327987 7 87 C6.34 87 5.68 87 5 87 C5 87.66 5 88.32 5 89 C5.94875 88.649375 6.8975 88.29875 7.875 87.9375 C12.64652464 86.53641576 17.1545323 87.27854203 22 88 C22 92.32988015 19.84002716 94.01177835 17.00390625 97.1171875 C14.06449512 99.8789734 11.91771756 100.98429545 8 102 C4.74386657 101.20405627 3.36460408 100.36460408 1 98 C1 96.68 1 95.36 1 94 C0.5875 94.49628906 0.175 94.99257812 -0.25 95.50390625 C-4.48113502 100.4811566 -8.9783853 104.82619038 -14 109 C-15.9375 108.25 -15.9375 108.25 -18 107 C-18.33 105.68 -18.66 104.36 -19 103 C-14.38 99.04 -9.76 95.08 -5 91 C-6.98 89.68 -8.96 88.36 -11 87 C-14.72973936 82.10733629 -15.95364127 75.9477233 -17 70 C-9.51812458 71.1002758 -5.40732753 74.12356329 -1 80 C-0.34 80.99 0.32 81.98 1 83 C7.83116065 74.85515461 12.05234897 67.24742211 15 57 C14.67 56.67 14.34 56.34 14 56 C12.9275 56.04125 11.855 56.0825 10.75 56.125 C6.529431 55.98431437 5.19465739 55.70317164 2 53 C-4 45.45714286 -4 45.45714286 -4 40 C2.82904706 40.44009414 7.96740185 41.37721241 13.3125 46 C15 48 15 48 16 51 C16.07654536 46.48382401 16.10228696 42.40914783 15 38 C14.01 38.495 14.01 38.495 13 39 C9.30368809 39.42003544 7.30288468 39.14835168 3.9375 37.5 C0.38653168 34.4778993 -2.03564843 31.23291688 -4 27 C-4 26.01 -4 25.02 -4 24 C-2.22925083 23.97294271 -0.45838289 23.95357805 1.3125 23.9375 C2.29863281 23.92589844 3.28476562 23.91429687 4.30078125 23.90234375 C7 24 7 24 10 25 C9.071875 24.443125 8.14375 23.88625 7.1875 23.3125 C3.3882311 20.55616766 1.56194744 18.26318559 0.4296875 13.703125 C-0.02930477 10.81564636 -0.09770273 8.10932626 -0.0625 5.1875 C-0.05347656 4.21167969 -0.04445313 3.23585937 -0.03515625 2.23046875 C-0.02355469 1.49441406 -0.01195312 0.75835937 0 0 Z " fill="#4B0A8B" transform="translate(353,136)"/>
<path d="M0 0 C0.33 14.19 0.66 28.38 1 43 C4.3 41.02 7.6 39.04 11 37 C17.88217716 34.0999073 24.70924232 33.14207405 32 35 C37.43601652 37.61734129 39.49493459 40.71152859 42 46 C43.17133426 50.36812079 43.16715412 54.73057212 43.2109375 59.22265625 C43.23898812 60.82878655 43.26765244 62.43490622 43.296875 64.04101562 C43.33821406 66.55802308 43.3751285 69.07482812 43.40136719 71.59204102 C43.42896489 74.03182094 43.47480872 76.47071701 43.5234375 78.91015625 C43.52669037 79.66128189 43.52994324 80.41240753 43.53329468 81.18629456 C43.63385306 85.46143167 44.11418515 87.8213866 47 91 C47 91.66 47 92.32 47 93 C40.73 93 34.46 93 28 93 C28.495 91.515 28.495 91.515 29 90 C29.66 89.67 30.32 89.34 31 89 C33.03623827 83.61143803 32.22501444 77.21490887 32.24023438 71.52075195 C32.24989162 69.33700761 32.28091555 67.15422495 32.3125 64.97070312 C32.67346039 52.57242619 32.67346039 52.57242619 27.09375 42.00390625 C23.06820298 40.07374658 19.4455433 39.57719018 15 40 C9.9161318 41.89422974 4.86939241 44.13060759 1 48 C0.81232158 50.5718545 0.74433255 53.03387675 0.76953125 55.60546875 C0.76998947 56.36289871 0.77044769 57.12032867 0.7709198 57.90071106 C0.77394425 59.50714682 0.7818363 61.11357959 0.79418945 62.7199707 C0.8122991 65.16042675 0.81470007 67.60049978 0.81445312 70.04101562 C0.81937441 71.6041699 0.82520537 73.16732163 0.83203125 74.73046875 C0.83314407 75.45364792 0.8342569 76.17682709 0.83540344 76.92192078 C0.87645646 81.38600742 1.27928857 85.60779406 2 90 C3.485 90.495 3.485 90.495 5 91 C5 91.66 5 92.32 5 93 C-1.27 93 -7.54 93 -14 93 C-12 89 -12 89 -11 88 C-10.88910145 85.6126931 -10.84261849 83.25403647 -10.83886719 80.86572266 C-10.83390228 80.11937057 -10.82893738 79.37301849 -10.82382202 78.60404968 C-10.8091639 76.12404473 -10.80239223 73.64410374 -10.796875 71.1640625 C-10.79112637 69.44631955 -10.7853686 67.72857663 -10.77960205 66.01083374 C-10.76908154 62.40435486 -10.76324582 58.79789833 -10.75976562 55.19140625 C-10.75427991 50.56522265 -10.73025479 45.93933325 -10.70179367 41.31324196 C-10.68318906 37.76338838 -10.67796285 34.21360595 -10.67642975 30.66370773 C-10.67339754 28.95802579 -10.66534996 27.25234526 -10.65224457 25.54671097 C-10.63522976 23.16193392 -10.63705285 20.77787917 -10.64355469 18.39306641 C-10.6343399 17.68541641 -10.62512512 16.97776642 -10.6156311 16.24867249 C-10.60283667 12.41154036 -10.60283667 12.41154036 -12.52227783 9.22543335 C-13.00992615 8.82104034 -13.49757446 8.41664734 -14 8 C-14 7.01 -14 6.02 -14 5 C-12.23244474 4.15973604 -10.46082737 3.32801278 -8.6875 2.5 C-7.70136719 2.0359375 -6.71523438 1.571875 -5.69921875 1.09375 C-3 0 -3 0 0 0 Z " fill="#361B70" transform="translate(389,272)"/>
<path d="M0 0 C0.10861833 2.70942393 0.18758577 5.414439 0.25 8.125 C0.30027344 9.26582031 0.30027344 9.26582031 0.3515625 10.4296875 C0.46596463 17.06501117 -1.67037963 20.54095627 -6.25 25.375 C-6.8275 25.91125 -7.405 26.4475 -8 27 C-7.49210937 26.71125 -6.98421875 26.4225 -6.4609375 26.125 C-2.12191875 23.78485506 0.93935183 22.49393518 6 23 C5.39357607 29.3674513 2.72043132 33.55001033 -1.8125 37.9375 C-5 40 -5 40 -8.875 39.8125 C-9.90625 39.544375 -10.9375 39.27625 -12 39 C-12.68818791 52.09468667 -10.31292293 60.92212525 -3.26953125 71.90625 C-2 74 -2 74 -1 77 C-0.01 77.33 0.98 77.66 2 78 C3.84499398 79.87617698 5.3683599 81.92737609 7 84 C7.2475 82.948125 7.495 81.89625 7.75 80.8125 C9.28167536 75.57311396 11.95747383 72.46278583 16.625 69.6875 C20 68 20 68 22 68 C22.43879469 74.9110164 21.69077407 80.0423616 18 86 C16.70383246 87.36949088 15.37743204 88.71227467 14 90 C15.95687959 91.48112446 17.91541437 92.95996347 19.875 94.4375 C20.43058594 94.85837891 20.98617187 95.27925781 21.55859375 95.71289062 C24.65092886 98.05745944 24.65092886 98.05745944 28 100 C27.39816251 102.02045442 26.72693904 104.02111039 26 106 C25.01 106.495 25.01 106.495 24 107 C12.04881209 98.28719849 0.48926382 89.00766874 -7 76 C-7.99 77.2684375 -7.99 77.2684375 -9 78.5625 C-12 81 -12 81 -15.9375 81.0625 C-21.03793935 80.0520356 -25.85759063 77.18987916 -29 73 C-29 71.68 -29 70.36 -29 69 C-25.16275828 68.09586327 -21.62497726 67.89423102 -17.6875 67.9375 C-15.810625 67.958125 -13.93375 67.97875 -12 68 C-13.32 64.37 -14.64 60.74 -16 57 C-17.32 57.66 -18.64 58.32 -20 59 C-24.29547437 59.4602294 -27.79172072 58.83481114 -31.36328125 56.3671875 C-33.32673137 54.64437336 -35.19320844 52.88556176 -37 51 C-36.6875 49.0625 -36.6875 49.0625 -36 47 C-32.98322461 45.9944082 -30.78488793 45.80194336 -27.625 45.75 C-26.22121094 45.71132812 -26.22121094 45.71132812 -24.7890625 45.671875 C-22 46 -22 46 -17 49 C-16.67 45.04 -16.34 41.08 -16 37 C-16.99 37.495 -16.99 37.495 -18 38 C-24.50276818 38.79858557 -27.76958871 37.39240918 -33.1171875 33.703125 C-35.08488543 31.92321567 -35.99472445 30.43382502 -37 28 C-33.61975332 25.957261 -30.98164934 25.73023128 -27.0625 25.75 C-26.04285156 25.74484375 -25.02320313 25.7396875 -23.97265625 25.734375 C-20.90863201 26.00816429 -18.73636916 26.61240854 -16 28 C-14.6875 30.125 -14.6875 30.125 -14 32 C-13.46987262 30.71211992 -12.9511671 29.41953322 -12.4375 28.125 C-12.14746094 27.40570313 -11.85742188 26.68640625 -11.55859375 25.9453125 C-10.7462882 23.94350596 -10.7462882 23.94350596 -12 22 C-12.67863991 14.12777703 -10.44114201 9.37451984 -5.875 3.0625 C-3.85604475 0.84164922 -3.00584419 0 0 0 Z M-15 34 C-14 36 -14 36 -14 36 Z " fill="#4C0B8B" transform="translate(288,139)"/>
<path d="M0 0 C4.06326138 5.37399086 4.1633148 10.57242224 4.28125 17.125 C4.30886414 18.3008667 4.30886414 18.3008667 4.33703613 19.50048828 C4.4154597 22.84589439 4.48335066 26.1914957 4.55224609 29.53710938 C4.60411779 31.9831692 4.66130951 34.42906563 4.71875 36.875 C4.73232544 37.6292627 4.74590088 38.38352539 4.7598877 39.16064453 C4.77065537 44.19106749 4.77065537 44.19106749 6 49 C6.99 49.66 7.98 50.32 9 51 C9 51.66 9 52.32 9 53 C4.38 53 -0.24 53 -5 53 C-6.4807848 50.0384304 -6.35314037 47.16493705 -6.5625 43.875 C-6.64628906 42.59367187 -6.73007812 41.31234375 -6.81640625 39.9921875 C-6.87699219 39.00476563 -6.93757813 38.01734375 -7 37 C-7.3403125 37.65226562 -7.680625 38.30453125 -8.03125 38.9765625 C-12.22369317 46.53634035 -16.45237023 51.13222349 -24.5 54.4375 C-30.11347531 55.33966568 -34.69931041 54.88524171 -39.8125 52.3125 C-43.46299917 49.66409864 -44.6503956 48.28697868 -46 44 C-46.64529146 39.04738802 -46.5867177 35.24384153 -44.4375 30.6875 C-39.19161768 24.90357847 -33.55788381 22.09475321 -26.25 19.8125 C-25.46447754 19.55839355 -24.67895508 19.30428711 -23.86962891 19.04248047 C-17.99225215 17.18957981 -12.12139724 15.78202872 -6 15 C-7.56196266 8.27520274 -7.56196266 8.27520274 -11.0625 2.4375 C-16.54078223 -0.24336151 -22.34374191 -0.8475221 -28.1875 1.0625 C-31.8673875 2.6566213 -34.60424016 5.00793992 -37.45703125 7.79296875 C-39 9 -39 9 -42 9 C-39.46669844 3.14897355 -34.18987511 -1.23307206 -28.4375 -3.875 C-18.37685381 -7.16757512 -8.2921971 -7.1161403 0 0 Z M-16.5625 19.625 C-17.44486328 19.86089844 -18.32722656 20.09679687 -19.23632812 20.33984375 C-25.27974103 22.08184747 -30.60211215 24.35932655 -35 29 C-37.01712751 33.45786601 -37.39615494 36.66297708 -36 41.375 C-33.52983157 44.61709607 -31.88728274 45.75313572 -28 47 C-22.55581569 47 -18.89440734 46.03369414 -14.6015625 42.65234375 C-9.06358217 36.93876893 -5.9117768 28.9952359 -5.875 21.125 C-5.90677178 19.74973578 -5.94501872 18.37453198 -6 17 C-9.46996914 17 -13.25230017 18.68190976 -16.5625 19.625 Z " fill="#351B6F" transform="translate(361,312)"/>
<path d="M0 0 C7.33256699 7.54069662 6.41964483 17.05000503 6.4765625 26.83984375 C6.50584362 29.12909482 6.54062536 31.41816029 6.57905579 33.70727539 C6.6011304 35.12304227 6.61719503 36.53892178 6.62590027 37.95483398 C6.67653133 42.66406643 7.13934684 47.18446723 7.7890625 51.83984375 C8.7790625 52.16984375 9.7690625 52.49984375 10.7890625 52.83984375 C10.7890625 53.49984375 10.7890625 54.15984375 10.7890625 54.83984375 C8.64329613 54.86670313 6.49743605 54.88617463 4.3515625 54.90234375 C3.15660156 54.91394531 1.96164062 54.92554688 0.73046875 54.9375 C-2.2109375 54.83984375 -2.2109375 54.83984375 -3.2109375 53.83984375 C-3.44794989 50.98106466 -3.63312932 48.14101078 -3.7734375 45.27734375 C-3.83821289 44.06788086 -3.83821289 44.06788086 -3.90429688 42.83398438 C-4.01069012 40.8361557 -4.11134638 38.83802305 -4.2109375 36.83984375 C-4.7471875 38.01546875 -5.2834375 39.19109375 -5.8359375 40.40234375 C-9.44310139 47.55338795 -13.86029827 52.54472961 -21.2109375 55.83984375 C-27.47824493 57.35612781 -32.45431307 56.89907845 -38.2109375 53.83984375 C-42.3431603 50.23764478 -44.03259611 46.59353409 -44.5859375 41.15234375 C-44.48309126 36.06612951 -42.60755978 32.56568947 -39.2109375 28.83984375 C-29.87340362 21.41821855 -15.52124458 18.73208444 -4.2109375 15.83984375 C-5.72589607 10.07561114 -6.83953651 6.06268435 -12.2109375 2.83984375 C-18.70041105 0.6766859 -23.81436582 2.03642038 -29.91015625 4.6171875 C-33.00449457 6.26154725 -34.85788185 8.27287395 -37.2109375 10.83984375 C-38.2009375 10.83984375 -39.1909375 10.83984375 -40.2109375 10.83984375 C-37.32747174 4.34504709 -31.4894857 0.49449235 -25.171875 -2.41015625 C-16.71769889 -5.643626 -7.64382166 -4.57002954 0 0 Z M-14.8984375 21.52734375 C-16.2277832 21.89375977 -16.2277832 21.89375977 -17.58398438 22.26757812 C-23.8753444 24.10702092 -29.44554837 26.35304876 -33.6484375 31.65234375 C-34.72384315 35.83447683 -34.7122671 39.98492421 -33.5859375 44.15234375 C-31.40218701 46.83240117 -29.48178435 47.70991484 -26.2109375 48.83984375 C-21.30930513 49.23197434 -17.39093985 48.41620176 -13.4609375 45.40234375 C-7.33633275 39.46247186 -4.29783813 31.17815602 -3.2109375 22.83984375 C-3.2109375 21.51984375 -3.2109375 20.19984375 -3.2109375 18.83984375 C-7.20185789 18.83984375 -11.09155052 20.41914676 -14.8984375 21.52734375 Z " fill="#351B6D" transform="translate(298.2109375,310.16015625)"/>
<path d="M0 0 C0.71353638 0.00202423 1.42707275 0.00404846 2.16223145 0.00613403 C2.89091431 0.00517731 3.61959717 0.00422058 4.37036133 0.00323486 C5.91377855 0.00255318 7.45719861 0.00440666 9.00061035 0.00857544 C11.37095544 0.01392391 13.74111104 0.00863011 16.1114502 0.00222778 C17.60754437 0.00288857 19.10363842 0.00416973 20.59973145 0.00613403 C21.31326782 0.0041098 22.0268042 0.00208557 22.76196289 0 C27.76602953 0.02399462 27.76602953 0.02399462 28.88098145 1.13894653 C28.44814344 7.61878609 27.10945742 13.3520368 25.13098145 19.51394653 C23.00967153 26.33244267 21.03336213 33.1602087 19.25598145 40.07644653 C17.80591714 45.65361695 16.35032196 51.22602892 14.75598145 56.76394653 C14.46465332 57.78746216 14.1733252 58.81097778 13.87316895 59.86550903 C13.54574707 60.61574341 13.2183252 61.36597778 12.88098145 62.13894653 C11.39598145 62.63394653 11.39598145 62.63394653 9.88098145 63.13894653 C5.99971976 50.13582558 2.30001042 37.08441222 -1.32312012 24.0071106 C-2.02889336 21.463729 -2.7413142 18.92231483 -3.45495605 16.38113403 C-3.82275452 15.0505736 -4.18999823 13.71985961 -4.55651855 12.38894653 C-5.01864746 10.72605591 -5.01864746 10.72605591 -5.4901123 9.02957153 C-6.08882819 6.27770972 -6.32577347 3.94274485 -6.11901855 1.13894653 C-4.41408974 -0.56598228 -2.27367595 0.01090233 0 0 Z " fill="#4C0292" transform="translate(311.1190185546875,166.86105346679688)"/>
<path d="M0 0 C0.00586624 1.0685321 0.01173248 2.13706421 0.01777649 3.23797607 C0.07496334 13.30272138 0.14770378 23.36724978 0.23571491 33.43177414 C0.28046254 38.606193 0.319709 43.78053232 0.34643555 48.95507812 C0.37242467 53.94782959 0.41279593 58.9402757 0.46318626 63.93283844 C0.47988472 65.83859716 0.49138041 67.74440873 0.49761391 69.65023041 C0.50722264 72.31760246 0.53524282 74.98418803 0.56762695 77.65136719 C0.56619186 78.4411496 0.56475677 79.23093201 0.5632782 80.04464722 C0.63762261 84.36790905 1.054428 86.79399419 4 90 C4 90.66 4 91.32 4 92 C-2.27 92 -8.54 92 -15 92 C-14.67 91.01 -14.34 90.02 -14 89 C-13.01 88.505 -13.01 88.505 -12 88 C-10.64290926 84.42066685 -10.85218309 80.69082416 -10.82299805 76.90820312 C-10.81314125 75.84894875 -10.81314125 75.84894875 -10.80308533 74.76829529 C-10.78342705 72.43927902 -10.77170985 70.11032683 -10.76171875 67.78125 C-10.75764322 66.98453384 -10.7535677 66.18781769 -10.74936867 65.36695862 C-10.72854524 61.15430971 -10.7142244 56.94169308 -10.70483398 52.72900391 C-10.6937445 48.37755036 -10.65930533 44.02660464 -10.61966228 39.67533112 C-10.59354186 36.32789143 -10.58514653 32.98057402 -10.58155251 29.63304138 C-10.57667893 28.02864633 -10.56504294 26.42425701 -10.54651451 24.81996155 C-10.52220679 22.57682626 -10.52307125 20.3350231 -10.5300293 18.09179688 C-10.52416306 16.81590698 -10.51829681 15.54001709 -10.51225281 14.22546387 C-11.08799362 10.4180997 -12.18948676 9.4876721 -15 7 C-15 6.01 -15 5.02 -15 4 C-13.06767179 3.13419713 -11.12892806 2.28270059 -9.1875 1.4375 C-8.10855469 0.96183594 -7.02960938 0.48617188 -5.91796875 -0.00390625 C-3 -1 -3 -1 0 0 Z " fill="#341B6F" transform="translate(242,273)"/>
<path d="M0 0 C0.66 0.33 1.32 0.66 2 1 C2.01030746 1.61530075 2.02061493 2.2306015 2.03123474 2.86454773 C2.13946955 9.2723517 2.25405363 15.68001987 2.37231445 22.08764648 C2.41560886 24.47856808 2.45728782 26.86951951 2.49731445 29.26049805 C2.55514994 32.69849635 2.61880641 36.13634529 2.68359375 39.57421875 C2.70030624 40.64210129 2.71701874 41.70998383 2.73423767 42.81022644 C2.75418289 43.81088638 2.77412811 44.81154633 2.79467773 45.8425293 C2.81022202 46.71967087 2.8257663 47.59681244 2.84178162 48.50053406 C3.00480305 51.07587652 3.43719881 53.4842556 4 56 C5.485 56.495 5.485 56.495 7 57 C7 57.66 7 58.32 7 59 C0.73 59 -5.54 59 -12 59 C-11 57 -10 55 -9 53 C-8.876276 49.98450869 -8.81154367 46.99305976 -8.796875 43.9765625 C-8.79117493 43.07884125 -8.78547485 42.18112 -8.77960205 41.25619507 C-8.77014705 39.35472799 -8.76361609 37.4532445 -8.75976562 35.55175781 C-8.75006203 32.64358912 -8.71904444 29.73612768 -8.6875 26.828125 C-8.68096978 24.98177504 -8.67571938 23.13542001 -8.671875 21.2890625 C-8.6595282 20.4191568 -8.6471814 19.5492511 -8.63446045 18.65298462 C-8.6514034 14.05695363 -8.76480735 11.51386766 -12 8 C-12 7.01 -12 6.02 -12 5 C-10.04578965 4.13644222 -8.08648653 3.28440066 -6.125 2.4375 C-5.03445312 1.96183594 -3.94390625 1.48617188 -2.8203125 0.99609375 C-1.88960937 0.66738281 -0.95890625 0.33867187 0 0 Z " fill="#361B71" transform="translate(213,306)"/>
<path d="M0 0 C5.81868393 0.25353743 9.81102461 0.57165459 14 5 C19.17784028 11.21340833 20.34280714 18.33459002 19.9375 26.25 C19.23769622 31.29972048 17.94325246 33.72793944 14 37 C9.73426288 38.54479369 6.78479436 38.29964875 2.5625 36.6875 C0 35 0 35 -1 33 C-1.5824615 27.8628805 -1.59548218 23.49564363 1 18.9375 C3.44258601 14.63472393 3.77983702 10.86725862 3 6 C1.65253476 2.54653852 1.65253476 2.54653852 0 0 Z M11 17 C10.15615325 18.41042956 9.32530504 19.82864132 8.5 21.25 C8.0359375 22.03890625 7.571875 22.8278125 7.09375 23.640625 C5.71961224 26.17140893 5.71961224 26.17140893 6 30 C7.65 30 9.3 30 11 30 C12.32229189 27.35541621 12.09677194 25.32238699 12.0625 22.375 C12.04896484 20.87066406 12.04896484 20.87066406 12.03515625 19.3359375 C12.02355469 18.56507813 12.01195312 17.79421875 12 17 C11.67 17 11.34 17 11 17 Z " fill="#4A078C" transform="translate(313,127)"/>
<path d="M0 0 C0.66 0.33 1.32 0.66 2 1 C2.01030746 1.61530075 2.02061493 2.2306015 2.03123474 2.86454773 C2.13946955 9.2723517 2.25405363 15.68001987 2.37231445 22.08764648 C2.41560886 24.47856808 2.45728782 26.86951951 2.49731445 29.26049805 C2.55514994 32.69849635 2.61880641 36.13634529 2.68359375 39.57421875 C2.70030624 40.64210129 2.71701874 41.70998383 2.73423767 42.81022644 C2.75418289 43.81088638 2.77412811 44.81154633 2.79467773 45.8425293 C2.81022202 46.71967087 2.8257663 47.59681244 2.84178162 48.50053406 C3.00480305 51.07587652 3.43719881 53.4842556 4 56 C5.485 56.495 5.485 56.495 7 57 C7 57.66 7 58.32 7 59 C0.73 59 -5.54 59 -12 59 C-11 57 -10 55 -9 53 C-8.90065818 49.97269846 -8.86020042 46.96888177 -8.8671875 43.94140625 C-8.86575241 42.59126686 -8.86575241 42.59126686 -8.86428833 41.21385193 C-8.86360714 39.30817597 -8.86545719 37.40249769 -8.86962891 35.49682617 C-8.87497179 32.57790919 -8.86968507 29.65914651 -8.86328125 26.74023438 C-8.86394216 24.89062466 -8.8652236 23.04101504 -8.8671875 21.19140625 C-8.86516327 20.31633926 -8.86313904 19.44127228 -8.86105347 18.53968811 C-8.86578171 17.31843483 -8.86578171 17.31843483 -8.87060547 16.07250977 C-8.87140106 15.35684341 -8.87219666 14.64117706 -8.87301636 13.90382385 C-8.93451239 11.77581201 -8.93451239 11.77581201 -10 9 C-9.01 9 -8.02 9 -7 9 C-6.20211144 11.82173433 -5.8662185 14.34878099 -5.83886719 17.27783203 C-5.82925964 18.11194611 -5.8196521 18.94606018 -5.80975342 19.80545044 C-5.80550354 20.69722992 -5.80125366 21.5890094 -5.796875 22.5078125 C-5.79117493 23.42964325 -5.78547485 24.351474 -5.77960205 25.30123901 C-5.77017047 27.24622454 -5.7636254 29.19122591 -5.75976562 31.13623047 C-5.75001292 34.12104669 -5.71895365 37.10518767 -5.6875 40.08984375 C-5.68097427 41.97916258 -5.67572211 43.86848632 -5.671875 45.7578125 C-5.6595282 46.65364044 -5.6471814 47.54946838 -5.63446045 48.47244263 C-5.63746155 49.30025238 -5.64046265 50.12806213 -5.64355469 50.98095703 C-5.63990906 51.71057648 -5.63626343 52.44019592 -5.63250732 53.19192505 C-6 55 -6 55 -9 57 C-7.02 57.33 -5.04 57.66 -3 58 C-2.67 57.01 -2.34 56.02 -2 55 C-1.01 55 -0.02 55 1 55 C0.75552124 53.33517578 0.75552124 53.33517578 0.50610352 51.63671875 C-0.10976024 46.68645328 -0.1262517 41.79486013 -0.09765625 36.8125 C-0.0962413 35.86938965 -0.09482635 34.9262793 -0.09336853 33.95458984 C-0.0878124 30.96969303 -0.07526823 27.98487379 -0.0625 25 C-0.05747932 22.96484484 -0.05291741 20.92968849 -0.04882812 18.89453125 C-0.03785737 13.92965803 -0.02062339 8.96484213 0 4 C-0.99 4 -1.98 4 -3 4 C-4.33981486 3.6937566 -5.67511887 3.36548445 -7 3 C-4.69631264 1.93347808 -2.35981813 0.93578995 0 0 Z " fill="#2F1B5E" transform="translate(213,306)"/>
<path d="M0 0 C10.359375 1.21875 10.359375 1.21875 14.1875 5.375 C16.96911866 9.40355117 18.52765649 11.98726333 18 17 C17.34 17.66 16.68 18.32 16 19 C11.64845723 19 9.60066398 18.53081933 6.3125 15.625 C3.37471155 11.64633948 0 5.02520834 0 0 Z " fill="#4C0391" transform="translate(344,190)"/>
<path d="M0 0 C-1.6028651 14.21488261 -1.6028651 14.21488261 -6 19 C-8.5946113 20.92503419 -9.5238972 21.06492311 -12.75 20.625 C-13.4925 20.41875 -14.235 20.2125 -15 20 C-16.32833465 13.84135754 -16.32833465 13.84135754 -15 10.4375 C-11.43362221 6.09097707 -6.04738899 0 0 0 Z " fill="#4B078E" transform="translate(301,191)"/>
<path d="M0 0 C-1.83305083 6.66563937 -4.73503122 12.06533917 -10 16.5625 C-13 18 -13 18 -15.8125 17.8125 C-18 17 -18 17 -19 16 C-19.42235195 11.3541286 -18.96870879 8.63906239 -16 5 C-10.81203875 1.2656704 -6.30635239 -0.17517646 0 0 Z " fill="#4C0390" transform="translate(296,179)"/>
<path d="M0 0 C-0.33 1.65 -0.66 3.3 -1 5 C-1.66 5 -2.32 5 -3 5 C-3.226875 5.763125 -3.45375 6.52625 -3.6875 7.3125 C-5.36264849 10.74256596 -6.46213383 11.56979878 -10 13 C-13.02278238 13.28322492 -15.97937103 13.32453039 -19 13 C-20 12 -20 12 -20.4375 8.1875 C-20.3469686 4.82576726 -20.16130995 4.18977641 -17.875 1.5 C-12.63195584 -1.40149046 -5.77025702 -0.28456062 0 0 Z " fill="#4D058F" transform="translate(394,178)"/>
<path d="M0 0 C3.25 1.625 3.25 1.625 5 4 C5.5 7.125 5.5 7.125 5 10 C1.26597961 12.48934693 -1.67885506 12.50933648 -6 12 C-11.71707874 10.09430709 -13.86046918 6.89397451 -17 2 C-11.38271284 -0.58147388 -6.08873088 -0.67278794 0 0 Z " fill="#4E0393" transform="translate(290,228)"/>
<path d="M0 0 C0.66 0 1.32 0 2 0 C4.75464117 3.11007874 6.94196512 6.39843896 9 10 C8.01 10.33 7.02 10.66 6 11 C6.00888245 11.89091843 6.01776489 12.78183685 6.0269165 13.69975281 C6.10710714 22.10106048 6.16798715 30.50223938 6.20724869 38.90384197 C6.2281122 43.2230889 6.25640687 47.54201925 6.30175781 51.86108398 C6.34526027 56.03025735 6.36914641 60.19912646 6.37950897 64.36850929 C6.3868925 65.958136 6.40131103 67.5477463 6.42292023 69.13724327 C6.45201408 71.3661925 6.45595371 73.5938891 6.45410156 75.82299805 C6.46298401 77.09096725 6.47186646 78.35893646 6.48101807 79.66532898 C5.91667768 83.5776343 4.80138932 85.25897947 2 88 C1.34 88 0.68 88 0 88 C1.875 84.125 1.875 84.125 3 83 C3.11089855 80.6126931 3.15738151 78.25403647 3.16113281 75.86572266 C3.16609772 75.11937057 3.17106262 74.37301849 3.17617798 73.60404968 C3.1908361 71.12404473 3.19760777 68.64410374 3.203125 66.1640625 C3.20887363 64.44631955 3.2146314 62.72857663 3.22039795 61.01083374 C3.23091846 57.40435486 3.23675418 53.79789833 3.24023438 50.19140625 C3.24572009 45.56522265 3.26974521 40.93933325 3.29820633 36.31324196 C3.31681094 32.76338838 3.32203715 29.21360595 3.32357025 25.66370773 C3.32660246 23.95802579 3.33465004 22.25234526 3.34775543 20.54671097 C3.36477024 18.16193392 3.36294715 15.77787917 3.35644531 13.39306641 C3.3656601 12.68541641 3.37487488 11.97776642 3.3843689 11.24867249 C3.39716333 7.41154036 3.39716333 7.41154036 1.47772217 4.22543335 C0.99007385 3.82104034 0.50242554 3.41664734 0 3 C0 2.01 0 1.02 0 0 Z " fill="#2D195B" transform="translate(375,277)"/>
<path d="M0 0 C2.31235063 2.0233068 3.47843542 3.32711918 4.5 6.1875 C2.5 6.1875 2.5 6.1875 0.375 4.1875 C-0.553125 3.1975 -0.553125 3.1975 -1.5 2.1875 C-2.49 2.5175 -3.48 2.8475 -4.5 3.1875 C-4.314375 3.950625 -4.12875 4.71375 -3.9375 5.5 C-3.5 8.1875 -3.5 8.1875 -4.5 11.1875 C-4.850625 10.424375 -5.20125 9.66125 -5.5625 8.875 C-8.01590462 5.47189036 -10.48928387 4.08483921 -14.5 3.1875 C-22.19588763 2.56311666 -28.12814672 6.292928 -34.5 10.1875 C-34.83 9.5275 -35.16 8.8675 -35.5 8.1875 C-27.44284938 -1.70082121 -11.3644559 -5.88516466 0 0 Z " fill="#301A61" transform="translate(424.5,308.8125)"/>
<path d="M0 0 C7.2814274 0.01600314 7.2814274 0.01600314 10.625 2.875 C11.346875 3.7 12.06875 4.525 12.8125 5.375 C12.1525 7.025 11.4925 8.675 10.8125 10.375 C2.81220458 11.82167651 2.81220458 11.82167651 -1.125 10.0625 C-3.1875 8.375 -3.1875 8.375 -5.1875 6.375 C-5.1875 5.055 -5.1875 3.735 -5.1875 2.375 C-5.8475 2.045 -6.5075 1.715 -7.1875 1.375 C-5.33326932 -0.47923068 -2.49112802 0.07318568 0 0 Z " fill="#4C0391" transform="translate(260.1875,186.625)"/>
<path d="M0 0 C1.00023193 0.00523682 2.00046387 0.01047363 3.03100586 0.01586914 C4.1105957 0.0190918 5.19018555 0.02231445 6.30249023 0.02563477 C8.00695312 0.03820312 8.00695312 0.03820312 9.74584961 0.05102539 C11.45611328 0.05779297 11.45611328 0.05779297 13.20092773 0.06469727 C16.02845312 0.07652792 18.85587601 0.09301129 21.68334961 0.11352539 C21.68334961 0.44352539 21.68334961 0.77352539 21.68334961 1.11352539 C20.790271 1.13539917 20.790271 1.13539917 19.87915039 1.15771484 C17.1882191 1.23206883 14.49854628 1.32876726 11.80834961 1.42602539 C10.40262695 1.45986328 10.40262695 1.45986328 8.96850586 1.49438477 C7.6246582 1.54755859 7.6246582 1.54755859 6.25366211 1.60180664 C5.42624512 1.62799072 4.59882813 1.6541748 3.74633789 1.68115234 C1.29007029 1.94449176 1.29007029 1.94449176 -0.31665039 5.11352539 C1.00334961 5.11352539 2.32334961 5.11352539 3.68334961 5.11352539 C4.01334961 6.10352539 4.34334961 7.09352539 4.68334961 8.11352539 C3.69334961 8.77352539 2.70334961 9.43352539 1.68334961 10.11352539 C2.09215836 14.06534333 2.48790645 17.5271959 3.74584961 21.30102539 C4.67935443 24.10153986 4.85543961 26.18799539 4.68334961 29.11352539 C6.66334961 29.11352539 8.64334961 29.11352539 10.68334961 29.11352539 C10.02334961 30.10352539 9.36334961 31.09352539 8.68334961 32.11352539 C8.49922899 34.14736555 8.49922899 34.14736555 8.70678711 36.34399414 C8.75834961 37.14643555 8.80991211 37.94887695 8.86303711 38.77563477 C8.92749023 39.60901367 8.99194336 40.44239258 9.05834961 41.30102539 C9.11506836 42.14600586 9.17178711 42.99098633 9.23022461 43.86157227 C9.37155785 45.94623756 9.52618211 48.02999405 9.68334961 50.11352539 C8.04012822 47.07334317 7.01725188 44.10921754 6.09741211 40.78149414 C5.66344116 39.22253418 5.66344116 39.22253418 5.22070312 37.63208008 C4.91962646 36.53283203 4.6185498 35.43358398 4.30834961 34.30102539 C3.99889404 33.17986328 3.68943848 32.05870117 3.37060547 30.90356445 C2.75430564 28.66663626 2.13992784 26.42917753 1.52758789 24.19116211 C0.80577549 21.55982402 0.07375389 18.9317432 -0.66430664 16.30493164 C-1.02808137 14.99126611 -1.39141034 13.677477 -1.75415039 12.36352539 C-2.2162793 10.70063477 -2.2162793 10.70063477 -2.68774414 9.00415039 C-3.28646002 6.25228857 -3.5234053 3.9173237 -3.31665039 1.11352539 C-2.31665039 0.11352539 -2.31665039 0.11352539 0 0 Z M9.68334961 27.11352539 C10.34334961 27.11352539 11.00334961 27.11352539 11.68334961 27.11352539 C11.35334961 27.77352539 11.02334961 28.43352539 10.68334961 29.11352539 C10.35334961 28.45352539 10.02334961 27.79352539 9.68334961 27.11352539 Z " fill="#47107E" transform="translate(308.316650390625,166.886474609375)"/>
<path d="M0 0 C1.9375 1.0625 1.9375 1.0625 3 3 C3.36528977 6.4093712 3.6140629 8.88023824 1.9375 11.9375 C-1.11976176 13.6140629 -3.5906288 13.36528977 -7 13 C-8.9375 11.9375 -8.9375 11.9375 -10 10 C-10.36528977 6.5906288 -10.6140629 4.11976176 -8.9375 1.0625 C-5.88023824 -0.6140629 -3.4093712 -0.36528977 0 0 Z " fill="#341C6D" transform="translate(213,287)"/>
<path d="M0 0 C0.3184 8.2784 0.3184 8.2784 -2 11 C-5.8584633 12.67442747 -7.89576643 13.4320914 -11.875 11.875 C-14.1371426 9.87899183 -14.69474204 8.95082697 -15 6 C-14.01 5.67 -13.02 5.34 -12 5 C-11.67 4.01 -11.34 3.02 -11 2 C-7.55152617 -0.52003857 -4.13426005 -0.15901 0 0 Z " fill="#4B068F" transform="translate(369,225)"/>
<path d="M0 0 C0.66 0.33 1.32 0.66 2 1 C2 1.66 2 2.32 2 3 C2.66 3.33 3.32 3.66 4 4 C2.44362904 7.59910784 1.35429121 8.83648098 -2.25 10.5 C-3.82695149 11.01977731 -5.4117608 11.51580926 -7 12 C-8.89388398 12.59246636 -10.78755001 13.18575644 -12.67675781 13.79296875 C-13.99155072 14.21441767 -15.30987103 14.62505531 -16.63183594 15.0234375 C-20.81061801 16.35196458 -23.88168112 17.89884617 -27 21 C-28.97181444 25.48066777 -29.514897 30.30381931 -28 35 C-29.5 34 -29.5 34 -31 32 C-31.40012988 27.03838948 -31.2609658 23.52193161 -29 19 C-30.65 19.33 -32.3 19.66 -34 20 C-30.74272706 16.15276181 -27.14587969 14.57593118 -22.5 12.9375 C-21.79528564 12.68145996 -21.09057129 12.42541992 -20.36450195 12.16162109 C-5.84723728 7 -5.84723728 7 1 7 C0.505 3.535 0.505 3.535 0 0 Z " fill="#2F1F5E" transform="translate(354,320)"/>
<path d="M0 0 C-2.81484045 1.40742022 -4.56936113 0.66652164 -7.625 0.0625 C-8.62789063 -0.13214844 -9.63078125 -0.32679688 -10.6640625 -0.52734375 C-11.43492187 -0.68332031 -12.20578125 -0.83929688 -13 -1 C-13 -0.34 -13 0.32 -13 1 C-12.01 0.67 -11.02 0.34 -10 0 C-9.67 0.99 -9.34 1.98 -9 3 C-9.7734375 2.89300781 -10.546875 2.78601563 -11.34375 2.67578125 C-17.90938823 1.92008279 -23.21792957 1.48589685 -29 5 C-30.91465736 6.52091734 -32.70747399 8.08496867 -34.45703125 9.79296875 C-36 11 -36 11 -39 11 C-36.46669844 5.14897355 -31.18987511 0.76692794 -25.4375 -1.875 C-17.18972344 -4.57427233 -7.27178962 -5.57503871 0 0 Z " fill="#2C1D5E" transform="translate(358,310)"/>
<path d="M0 0 C1.65 0 3.3 0 5 0 C5.75 1.625 5.75 1.625 6 4 C4.24107963 7.03262133 2.47809712 9.52190288 0 12 C-2.12890625 12.44921875 -2.12890625 12.44921875 -4.5625 12.6875 C-5.36816406 12.77386719 -6.17382812 12.86023438 -7.00390625 12.94921875 C-7.66261719 12.96597656 -8.32132812 12.98273438 -9 13 C-10 12 -10 12 -10.3125 9.6875 C-10 7 -10 7 -8.375 4.75 C-5.55940337 2.67534985 -3.44769066 2.31342642 0 2 C0 1.34 0 0.68 0 0 Z " fill="#4C0291" transform="translate(287,164)"/>
<path d="M0 0 C3.66398299 1.68970089 6.90832572 3.87300211 10.25 6.125 C11.86648438 7.21167969 11.86648438 7.21167969 13.515625 8.3203125 C14.33546875 8.87460938 15.1553125 9.42890625 16 10 C15.39816251 12.02045442 14.72693904 14.02111039 14 16 C13.34 16.33 12.68 16.66 12 17 C9.89062368 15.42323368 7.78760742 13.83902921 5.6875 12.25 C5.09259766 11.8065625 4.49769531 11.363125 3.88476562 10.90625 C0.75095327 8.5252529 -1.83262674 6.34886555 -4 3 C-2.68 3 -1.36 3 0 3 C0 2.01 0 1.02 0 0 Z " fill="#490C83" transform="translate(300,229)"/>
<path d="M0 0 C-0.33 0.99 -0.66 1.98 -1 3 C-2.85424805 3.82788086 -2.85424805 3.82788086 -5.26171875 4.46484375 C-6.56979492 4.82932617 -6.56979492 4.82932617 -7.90429688 5.20117188 C-8.82275391 5.44416016 -9.74121094 5.68714844 -10.6875 5.9375 C-20.63004262 8.3585726 -20.63004262 8.3585726 -28.3125 14.75 C-29.34616985 18.13291951 -29.64811566 21.48115657 -30 25 C-30.33 25 -30.66 25 -31 25 C-31 21.33333333 -31 17.66666667 -31 14 C-32.98 14.66 -34.96 15.32 -37 16 C-34.81367618 10.75060321 -31.01892852 9.24566613 -26 7 C-7.21264368 0 -7.21264368 0 0 0 Z " fill="#2E1F5F" transform="translate(294,327)"/>
<path d="M0 0 C-0.07747685 2.71168963 -0.50031654 4.44947666 -2.34375 6.48046875 C-4.92450029 8.57439569 -6.85686796 9.95419506 -10.2421875 10.08984375 C-12.4375 9.8125 -12.4375 9.8125 -16 9 C-15.67 6.36 -15.34 3.72 -15 1 C-9.675665 -1.32086397 -5.56157448 -0.91457003 0 0 Z " fill="#4D0293" transform="translate(388,160)"/>
<path d="M0 0 C3.3649635 3.3649635 3.3649635 3.3649635 3.625 7.375 C4.00420007 12.05432885 4.82195919 16.45612832 6 21 C2.88940452 21.26662247 1.3359064 21.20331177 -1.375 19.5625 C-4.57587515 17.65721717 -7.32533362 17.36026141 -11 17 C-10.67 18.65 -10.34 20.3 -10 22 C-8.68 22 -7.36 22 -6 22 C-6.33 23.65 -6.66 25.3 -7 27 C-9.65269897 24.52414762 -11.68010103 22.40973899 -13 19 C-13 18.01 -13 17.02 -13 16 C-11.22925083 15.97294271 -9.45838289 15.95357805 -7.6875 15.9375 C-6.70136719 15.92589844 -5.71523438 15.91429687 -4.69921875 15.90234375 C-2 16 -2 16 1 17 C-0.423125 16.13375 -0.423125 16.13375 -1.875 15.25 C-4.76134098 13.17183449 -5.84095741 12.24531925 -7 9 C-5.68 9 -4.36 9 -3 9 C-3 9.66 -3 10.32 -3 11 C-1.68 10.34 -0.36 9.68 1 9 C0.67 6.03 0.34 3.06 0 0 Z " fill="#440F81" transform="translate(362,144)"/>
<path d="M0 0 C0.66 0.33 1.32 0.66 2 1 C1.99214478 2.53539429 1.99214478 2.53539429 1.98413086 4.10180664 C1.96593738 7.92422602 1.95451584 11.74664162 1.94506836 15.5690918 C1.94006081 17.21883794 1.93325284 18.8685797 1.92456055 20.51831055 C1.91233746 22.89893685 1.90673578 25.27950413 1.90234375 27.66015625 C1.89718246 28.38960953 1.89202118 29.11906281 1.88670349 29.87062073 C1.88622036 34.34941362 2.26714932 38.58007359 3 43 C3.99 43.33 4.98 43.66 6 44 C6 44.66 6 45.32 6 46 C3.36 46 0.72 46 -2 46 C-2 44.68 -2 43.36 -2 42 C-1.01 42 -0.02 42 1 42 C1 41.01 1 40.02 1 39 C0.34 39 -0.32 39 -1 39 C-2.23655605 35.29033186 -2.03730932 31.9381668 -1.9140625 28.0859375 C-1.89282318 27.31569244 -1.87158386 26.54544739 -1.84970093 25.75186157 C-1.80349022 24.12616362 -1.75456617 22.50054085 -1.703125 20.875 C-1.62508633 18.37776268 -1.55804275 15.88039755 -1.4921875 13.3828125 C-1.44596989 11.80466811 -1.39911683 10.22654218 -1.3515625 8.6484375 C-1.33171295 7.89742767 -1.3118634 7.14641785 -1.29141235 6.37265015 C-1.11509011 1.11509011 -1.11509011 1.11509011 0 0 Z " fill="#331E61" transform="translate(388,319)"/>
<path d="M0 0 C3.40525185 5.10787778 3.15257282 10.23456084 3.2109375 16.22265625 C3.23898812 17.82878655 3.26765244 19.43490622 3.296875 21.04101562 C3.33821406 23.55802308 3.3751285 26.07482812 3.40136719 28.59204102 C3.42896489 31.03182094 3.47480872 33.47071701 3.5234375 35.91015625 C3.52669037 36.66128189 3.52994324 37.41240753 3.53329468 38.18629456 C3.63385306 42.46143167 4.11418515 44.8213866 7 48 C7 48.66 7 49.32 7 50 C0.73 50 -5.54 50 -12 50 C-11.67 49.01 -11.34 48.02 -11 47 C-9.948125 47.20625 -8.89625 47.4125 -7.8125 47.625 C-3.91482501 48.00837787 -2.45343391 47.56269376 1 46 C1.09911652 41.10707468 1.17158399 36.21473779 1.21972656 31.32104492 C1.23980207 29.65752987 1.26706876 27.99408504 1.30175781 26.33081055 C1.35045766 23.9352076 1.37300856 21.54054008 1.390625 19.14453125 C1.41127014 18.4047554 1.43191528 17.66497955 1.45318604 16.90278625 C1.45531702 11.96298303 0.47451059 9.50156128 -3 6 C-2.34 6 -1.68 6 -1 6 C-0.67 4.02 -0.34 2.04 0 0 Z " fill="#2F1B63" transform="translate(429,315)"/>
<path d="M0 0 C0 0.33 0 0.66 0 1 C-3.3 1.33 -6.6 1.66 -10 2 C-8.68 2.33 -7.36 2.66 -6 3 C-6 3.66 -6 4.32 -6 5 C-6.60585938 4.95359375 -7.21171875 4.9071875 -7.8359375 4.859375 C-15.02819751 4.54955457 -21.95358848 5.58281516 -27.6328125 10.37890625 C-28.76902034 11.57294502 -29.88624328 12.78499267 -31 14 C-31.99 14 -32.98 14 -34 14 C-31.11653424 7.50520334 -25.2785482 3.6546486 -18.9609375 0.75 C-12.64170344 -1.66691821 -6.53603689 -0.85481368 0 0 Z " fill="#2F1F60" transform="translate(292,307)"/>
<path d="M0 0 C1.32 0.33 2.64 0.66 4 1 C4 2.65 4 4.3 4 6 C4.66 6.33 5.32 6.66 6 7 C5.34 7 4.68 7 4 7 C4.10062489 13.77879847 4.10062489 13.77879847 7.0625 19.625 C7.701875 20.07875 8.34125 20.5325 9 21 C7.35 21 5.7 21 4 21 C2.5192152 18.0384304 2.64685963 15.16493705 2.4375 11.875 C2.35371094 10.59367187 2.26992188 9.31234375 2.18359375 7.9921875 C2.12300781 7.00476563 2.06242187 6.01734375 2 5 C1.63648438 5.67546875 1.27296875 6.3509375 0.8984375 7.046875 C-2.14723674 12.45099442 -4.46179988 16.09903803 -10 19 C-10 17.68 -10 16.36 -10 15 C-10.66 14.67 -11.32 14.34 -12 14 C-10.948125 13.360625 -9.89625 12.72125 -8.8125 12.0625 C-4.35332066 8.92657307 -2.28970406 4.84319891 0 0 Z " fill="#322062" transform="translate(352,344)"/>
<path d="M0 0 C5.81868393 0.25353743 9.81102461 0.57165459 14 5 C17.42585612 9.28232015 18.56354727 12.54434081 19 18 C14.07692308 13.69230769 14.07692308 13.69230769 13.6875 10.1875 C13.790625 9.465625 13.89375 8.74375 14 8 C13.34 8 12.68 8 12 8 C12 7.34 12 6.68 12 6 C10.02 6.66 8.04 7.32 6 8 C5.67 10.97 5.34 13.94 5 17 C4.34 17 3.68 17 3 17 C3.03480469 16.27554688 3.06960938 15.55109375 3.10546875 14.8046875 C3.26631949 9.06001832 3.23466184 4.98677034 0 0 Z " fill="#471282" transform="translate(313,127)"/>
<path d="M0 0 C2.27076842 -0.02699725 4.54162821 -0.04639453 6.8125 -0.0625 C8.07707031 -0.07410156 9.34164063 -0.08570313 10.64453125 -0.09765625 C14 0 14 0 17 1 C17 3.31 17 5.62 17 8 C10.375 9.125 10.375 9.125 7 8 C7 6.68 7 5.36 7 4 C5.02 4 3.04 4 1 4 C0.67 2.68 0.34 1.36 0 0 Z " fill="#4D0193" transform="translate(254,167)"/>
<path d="M0 0 C0 27.72 0 55.44 0 84 C-0.33 84 -0.66 84 -1 84 C-1.33 56.94 -1.66 29.88 -2 2 C-3.98 2.33 -5.96 2.66 -8 3 C-8 2.34 -8 1.68 -8 1 C-3.375 -1.125 -3.375 -1.125 0 0 Z " fill="#2E1D5D" transform="translate(242,273)"/>
<path d="M0 0 C3.25 1.625 3.25 1.625 5 4 C5.5 7.125 5.5 7.125 5 10 C1.26597961 12.48934693 -1.67885506 12.50933648 -6 12 C-11.71707874 10.09430709 -13.86046918 6.89397451 -17 2 C-11.38271284 -0.58147388 -6.08873088 -0.67278794 0 0 Z M-11 1 C-11 1.99 -11 2.98 -11 4 C-10.34 4.66 -9.68 5.32 -9 6 C-9.33 6.66 -9.66 7.32 -10 8 C-8.68 8 -7.36 8 -6 8 C-5.67 8.99 -5.34 9.98 -5 11 C-2.08365871 11.2502157 -2.08365871 11.2502157 1 11 C3.33391203 8.21885944 3.33391203 8.21885944 2.625 5.3125 C2.41875 4.549375 2.2125 3.78625 2 3 C1.34 3 0.68 3 0 3 C0 2.34 0 1.68 0 1 C-3.63 1 -7.26 1 -11 1 Z " fill="#481383" transform="translate(290,228)"/>
<path d="M0 0 C0 2.33333333 0 4.66666667 0 7 C5.65086673 9.86340962 10.20120133 10.51213175 16.5 10.4375 C17.37567627 10.43210205 18.25135254 10.4267041 19.15356445 10.42114258 C27.23684048 10.23473579 34.32606965 8.58578088 42 6 C42.96421875 5.69191406 43.9284375 5.38382812 44.921875 5.06640625 C46.95729826 4.40584187 48.98076369 3.70850397 51 3 C51.495 3.99 51.495 3.99 52 5 C35.76436569 10.82640494 19.1715795 15.95281691 2 11 C-1.1875 8.875 -1.1875 8.875 -3 7 C-2.25 2.25 -2.25 2.25 0 0 Z " fill="#2C1B59" transform="translate(76,374)"/>
<path d="M0 0 C10.359375 1.21875 10.359375 1.21875 14.1875 5.375 C16.96911866 9.40355117 18.52765649 11.98726333 18 17 C17.34 17.66 16.68 18.32 16 19 C13.375 18.625 13.375 18.625 11 18 C11 17.67 11 17.34 11 17 C12.65 17 14.3 17 16 17 C15.40138258 14.64828869 14.73075648 12.3140622 14 10 C13.34 9.67 12.68 9.34 12 9 C12 7.68 12 6.36 12 5 C9.69 4.67 7.38 4.34 5 4 C5.33 7.3 5.66 10.6 6 14 C3.3703954 10.49386053 2.4251739 8.77681984 1.3125 4.75 C1.06113281 3.85796875 0.80976563 2.9659375 0.55078125 2.046875 C0.36902344 1.37140625 0.18726563 0.6959375 0 0 Z " fill="#4B1584" transform="translate(344,190)"/>
<path d="M0 0 C1.01964844 -0.00515625 2.03929687 -0.0103125 3.08984375 -0.015625 C6.11582204 0.25476465 8.32075647 0.97758864 11.0625 2.25 C11.0625 5.22 11.0625 8.19 11.0625 11.25 C7.77082028 12.89583986 4.6054801 12.89363136 1.0625 12.25 C-3.82765534 9.86323102 -7.81139826 7.39740421 -9.9375 2.25 C-6.55725332 0.207261 -3.91914934 -0.01976872 0 0 Z M-6.9375 2.25 C-6.6075 3.57 -6.2775 4.89 -5.9375 6.25 C-3.9575 6.25 -1.9775 6.25 0.0625 6.25 C0.0625 7.57 0.0625 8.89 0.0625 10.25 C3.72555234 10.99926071 6.48605152 11.4880014 10.0625 10.25 C10.0625 7.94 10.0625 5.63 10.0625 3.25 C6.50204823 2.06318274 3.62441663 2.15310168 -0.125 2.1875 C-1.39730469 2.19652344 -2.66960937 2.20554688 -3.98046875 2.21484375 C-4.95628906 2.22644531 -5.93210938 2.23804688 -6.9375 2.25 Z " fill="#44137B" transform="translate(260.9375,164.75)"/>
<path d="M0 0 C1.89690565 5.41190041 -0.62194235 10.44260055 -2.25 15.6875 C-2.56324219 16.75806641 -2.87648438 17.82863281 -3.19921875 18.93164062 C-3.50988281 19.94806641 -3.82054687 20.96449219 -4.140625 22.01171875 C-4.42454102 22.94459717 -4.70845703 23.87747559 -5.00097656 24.83862305 C-5.3306543 25.55187744 -5.66033203 26.26513184 -6 27 C-6.99 27.33 -7.98 27.66 -9 28 C-9.66 25.03 -10.32 22.06 -11 19 C-9.02 18.34 -7.04 17.68 -5 17 C-4.89042969 16.35933594 -4.78085937 15.71867188 -4.66796875 15.05859375 C-3.67539672 9.6438309 -2.37541347 4.96677361 0 0 Z " fill="#4A1585" transform="translate(330,202)"/>
<path d="M0 0 C1.14275391 -0.00386719 1.14275391 -0.00386719 2.30859375 -0.0078125 C4.51565859 0.12223985 6.44219276 0.51643801 8.5625 1.125 C7.52312605 6.58171322 5.10396312 8.88533113 0.7265625 11.93359375 C-3.22438566 14.10875474 -7.03566152 14.125 -11.4375 14.125 C-12.90476798 10.31010326 -11.87086419 7.83488378 -10.4375 4.125 C-9.50326355 7.13531744 -9.39300089 7.99150268 -10.4375 11.125 C-4.61372676 11.64715542 -4.61372676 11.64715542 0.4375 9.125 C1.13875 8.465 1.84 7.805 2.5625 7.125 C3.2225 7.125 3.8825 7.125 4.5625 7.125 C4.8925 5.475 5.2225 3.825 5.5625 2.125 C-1.49401252 1.97524761 -1.49401252 1.97524761 -8.4375 3.125 C-6.68081903 -0.38836194 -3.52887754 -0.01190178 0 0 Z " fill="#46157B" transform="translate(382.4375,157.875)"/>
<path d="M0 0 C1.65 1.65 3.3 3.3 5 5 C4.67 5.99 4.34 6.98 4 8 C6.475 8.99 6.475 8.99 9 10 C9.33 9.34 9.66 8.68 10 8 C10 8.66 10 9.32 10 10 C11.051875 9.67 12.10375 9.34 13.1875 9 C16.38873357 8.16033218 18.7411008 7.80249096 22 8 C18.82754795 11.17245205 15.68950696 11.71843354 11.37890625 12.06640625 C6.24268695 11.92303067 2.33000696 10.16375609 -1.5 6.8125 C-1.995 6.214375 -2.49 5.61625 -3 5 C-2.67 4.01 -2.34 3.02 -2 2 C-1.34 2 -0.68 2 0 2 C0 1.34 0 0.68 0 0 Z " fill="#341969" transform="translate(320,355)"/>
<path d="M0 0 C2.58183684 2.24507551 3.41324422 3.64866933 4 7 C4.13917038 9.71453972 4.2323653 12.4089252 4.28125 15.125 C4.29965942 15.90891113 4.31806885 16.69282227 4.33703613 17.50048828 C4.4154597 20.84589439 4.48335066 24.1914957 4.55224609 27.53710938 C4.60411779 29.9831692 4.66130951 32.42906563 4.71875 34.875 C4.73232544 35.6292627 4.74590088 36.38352539 4.7598877 37.16064453 C4.77065537 42.19106749 4.77065537 42.19106749 6 47 C6.99 47.66 7.98 48.32 9 49 C9 49.66 9 50.32 9 51 C7.10913086 50.68920898 7.10913086 50.68920898 5 50 C0.66776056 42.4888466 1.73585708 33.82529804 1.9375 25.4375 C1.98561633 23.20939964 2.02893058 20.98159956 2.05970764 18.75318909 C2.08824401 16.73427371 2.13335222 14.71561239 2.17944336 12.69702148 C1.99248681 8.84520788 1.15730972 5.66457731 0 2 C0 1.34 0 0.68 0 0 Z " fill="#32215E" transform="translate(361,314)"/>
<path d="M0 0 C0.66 0.33 1.32 0.66 2 1 C2 2.65 2 4.3 2 6 C3.65 6 5.3 6 7 6 C7.33 8.64 7.66 11.28 8 14 C6.35 14 4.7 14 3 14 C3 13.34 3 12.68 3 12 C1.68 12 0.36 12 -1 12 C-1.02698189 10.37509046 -1.04638757 8.75005367 -1.0625 7.125 C-1.07410156 6.22007812 -1.08570313 5.31515625 -1.09765625 4.3828125 C-1 2 -1 2 0 0 Z " fill="#4D0393" transform="translate(356,141)"/>
<path d="M0 0 C1.98 0.66 3.96 1.32 6 2 C6 4.31 6 6.62 6 9 C3.29120665 10.35439668 0.99066732 10.06501451 -2 10 C-2.6875 6.6875 -2.6875 6.6875 -3 3 C-1.5625 1.0625 -1.5625 1.0625 0 0 Z " fill="#4D0292" transform="translate(378,180)"/>
<path d="M0 0 C0.99 0.99 1.98 1.98 3 3 C2.34 4.32 1.68 5.64 1 7 C0.34 7 -0.32 7 -1 7 C-1 7.99 -1 8.98 -1 10 C-1.99 10 -2.98 10 -4 10 C-4.66 11.98 -5.32 13.96 -6 16 C-5.34 16.33 -4.68 16.66 -4 17 C-3.67 16.01 -3.34 15.02 -3 14 C-2.34 14 -1.68 14 -1 14 C-2.36983503 17.16115776 -2.9890638 17.9927092 -6 20 C-8.1875 19.625 -8.1875 19.625 -10 19 C-8.71078784 16.39459218 -7.41874404 13.79065627 -6.125 11.1875 C-5.76019531 10.44951172 -5.39539063 9.71152344 -5.01953125 8.95117188 C-4.66503906 8.23896484 -4.31054688 7.52675781 -3.9453125 6.79296875 C-3.62062988 6.1383667 -3.29594727 5.48376465 -2.96142578 4.80932617 C-2 3 -2 3 0 0 Z " fill="#2D1C5B" transform="translate(164,210)"/>
<path d="M0 0 C0.66 0 1.32 0 2 0 C3.30673584 4.35578614 2.75569302 8.17676401 2.15625 12.59765625 C2.00019378 14.99702058 2.28407469 16.72062014 3 19 C6.465 18.505 6.465 18.505 10 18 C10.33 17.01 10.66 16.02 11 15 C11 15.66 11 16.32 11 17 C11.99 17.33 12.98 17.66 14 18 C14 18.66 14 19.32 14 20 C11.85423363 20.02685938 9.70837355 20.04633088 7.5625 20.0625 C6.36753906 20.07410156 5.17257812 20.08570313 3.94140625 20.09765625 C1 20 1 20 0 19 C-0.08651611 17.58429877 -0.10704904 16.164405 -0.09765625 14.74609375 C-0.09443359 13.89208984 -0.09121094 13.03808594 -0.08789062 12.15820312 C-0.07951172 11.26037109 -0.07113281 10.36253906 -0.0625 9.4375 C-0.05798828 8.53580078 -0.05347656 7.63410156 -0.04882812 6.70507812 C-0.03700225 4.46998686 -0.0205222 2.23502563 0 0 Z " fill="#362167" transform="translate(295,345)"/>
<path d="M0 0 C0 1.32 0 2.64 0 4 C-0.66 4 -1.32 4 -2 4 C-2 3.34 -2 2.68 -2 2 C-3.65 2 -5.3 2 -7 2 C-7 2.66 -7 3.32 -7 4 C-9.64 4.66 -12.28 5.32 -15 6 C-15.66 8.64 -16.32 11.28 -17 14 C-17.66 14 -18.32 14 -19 14 C-18.88557539 12.39504433 -18.75805306 10.79101881 -18.625 9.1875 C-18.55539062 8.29417969 -18.48578125 7.40085938 -18.4140625 6.48046875 C-18 4 -18 4 -16 1 C-15.01 1.33 -14.02 1.66 -13 2 C-13.33 2.66 -13.66 3.32 -14 4 C-13.23816406 3.566875 -13.23816406 3.566875 -12.4609375 3.125 C-8.12191875 0.78485506 -5.06064817 -0.50606482 0 0 Z " fill="#511985" transform="translate(294,162)"/>
<path d="M0 0 C0.66 0 1.32 0 2 0 C1.67 1.98 1.34 3.96 1 6 C1.8971875 5.505 1.8971875 5.505 2.8125 5 C5 4 5 4 8 4 C8 4.99 8 5.98 8 7 C7.34 7 6.68 7 6 7 C6 7.99 6 8.98 6 10 C5.34 10 4.68 10 4 10 C4 11.32 4 12.64 4 14 C2.68 14 1.36 14 0 14 C-1.38740735 9.14407429 -0.89337974 4.91358857 0 0 Z " fill="#500796" transform="translate(296,218)"/>
<path d="M0 0 C-4.62 1.32 -9.24 2.64 -14 4 C-14 4.66 -14 5.32 -14 6 C-17.63 7.98 -21.26 9.96 -25 12 C-25.33 11.34 -25.66 10.68 -26 10 C-20.33609979 3.04884974 -8.77799104 -2.19449776 0 0 Z " fill="#2A1B5D" transform="translate(415,307)"/>
<path d="M0 0 C-1.67998634 6.10904122 -4.47986665 11.69587808 -9.1875 16 C-11 17 -11 17 -13 17 C-13 16.34 -13 15.68 -13 15 C-11.7934375 14.319375 -11.7934375 14.319375 -10.5625 13.625 C-7.8559151 12.29567036 -7.8559151 12.29567036 -7.375 10 C-7.189375 9.01 -7.189375 9.01 -7 8 C-6.01979625 6.9805881 -5.02196992 5.97753644 -4 5 C-4 4.34 -4 3.68 -4 3 C-6.31 3 -8.62 3 -11 3 C-7.72430636 -0.27569364 -4.48909309 -0.12469703 0 0 Z " fill="#46177C" transform="translate(296,179)"/>
<path d="M0 0 C0.66 0.33 1.32 0.66 2 1 C1.61471495 7.16456078 -0.47086025 10.98627748 -4 16 C-5.65 15.67 -7.3 15.34 -9 15 C-8.60167969 14.50371094 -8.20335937 14.00742187 -7.79296875 13.49609375 C-4.40115025 9.14697367 -1.93684016 5.1649071 0 0 Z " fill="#2F205F" transform="translate(292,342)"/>
<path d="M0 0 C0 1.65 0 3.3 0 5 C-0.99 5.495 -0.99 5.495 -2 6 C-2 6.66 -2 7.32 -2 8 C-2.99 8 -3.98 8 -5 8 C-5.66 9.32 -6.32 10.64 -7 12 C-7.66 12 -8.32 12 -9 12 C-9.33 11.01 -9.66 10.02 -10 9 C-8.68 8.34 -7.36 7.68 -6 7 C-6.33 5.35 -6.66 3.7 -7 2 C-4 0 -4 0 0 0 Z " fill="#371D71" transform="translate(172,208)"/>
<path d="M0 0 C0.05380578 2.79192205 0.09357669 5.5828141 0.125 8.375 C0.15013672 9.56609375 0.15013672 9.56609375 0.17578125 10.78125 C0.19335473 12.85492015 0.10335168 14.92883241 0 17 C-0.66 17.66 -1.32 18.32 -2 19 C-2 14.38 -2 9.76 -2 5 C-4.31 6.98 -6.62 8.96 -9 11 C-9.33 10.34 -9.66 9.68 -10 9 C-9.04663979 7.68388323 -8.08714226 6.37221039 -7.125 5.0625 C-6.59132813 4.33160156 -6.05765625 3.60070312 -5.5078125 2.84765625 C-3.72258144 0.66005446 -2.83689522 0 0 0 Z " fill="#48197B" transform="translate(288,139)"/>
<path d="M0 0 C0.99 0.33 1.98 0.66 3 1 C3 2.32 3 3.64 3 5 C2.236875 4.9175 1.47375 4.835 0.6875 4.75 C-2.14416344 4.69657929 -2.14416344 4.69657929 -3.6875 7 C-4.3371875 7.99 -4.3371875 7.99 -5 9 C-5.66 9 -6.32 9 -7 9 C-7.33 9.66 -7.66 10.32 -8 11 C-9.97485205 12.3703055 -11.97386717 13.70672372 -14 15 C-14.66 14.67 -15.32 14.34 -16 14 C-13.54435315 11.77244683 -11.08336679 9.55139134 -8.61328125 7.33984375 C-7.10240035 5.98705203 -5.59671471 4.62831232 -4.10546875 3.25390625 C-2.5625 1.875 -2.5625 1.875 0 0 Z " fill="#311B5E" transform="translate(91,183)"/>
<path d="M0 0 C1.77049689 -0.05410687 3.54146849 -0.09284119 5.3125 -0.125 C6.29863281 -0.14820313 7.28476562 -0.17140625 8.30078125 -0.1953125 C11 0 11 0 14 2 C15.65549531 2.38499891 17.3222433 2.72793135 19 3 C18.67 3.66 18.34 4.32 18 5 C15.49890807 4.58315135 13.37388004 4.19940269 11.125 3 C8.16626544 1.60765433 5.22695003 1.37234039 2 1 C2.33 2.65 2.66 4.3 3 6 C4.32 6 5.64 6 7 6 C6.67 7.65 6.34 9.3 6 11 C3.34730103 8.52414762 1.31989897 6.40973899 0 3 C0 2.01 0 1.02 0 0 Z " fill="#4B1684" transform="translate(349,160)"/>
<path d="M0 0 C0.8971875 0.7425 0.8971875 0.7425 1.8125 1.5 C0.8225 1.995 0.8225 1.995 -0.1875 2.5 C-0.8475 2.17 -1.5075 1.84 -2.1875 1.5 C-4.3947923 1.42907158 -6.60417452 1.41584975 -8.8125 1.4375 C-10.59527344 1.45103516 -10.59527344 1.45103516 -12.4140625 1.46484375 C-13.78691406 1.48224609 -13.78691406 1.48224609 -15.1875 1.5 C-14.8575 2.82 -14.5275 4.14 -14.1875 5.5 C-15.5075 4.84 -16.8275 4.18 -18.1875 3.5 C-17.875 1.5625 -17.875 1.5625 -17.1875 -0.5 C-11.6085036 -2.35966547 -5.34193645 -2.51385245 0 0 Z " fill="#4A1A7F" transform="translate(269.1875,186.5)"/>
<path d="M0 0 C0.99 0 1.98 0 3 0 C1.8172603 4.33671225 0.73242221 7.33398414 -3 10 C-5.75 9.75 -5.75 9.75 -8 9 C-8 8.34 -8 7.68 -8 7 C-7.34 7 -6.68 7 -6 7 C-6 6.34 -6 5.68 -6 5 C-5.195625 4.731875 -4.39125 4.46375 -3.5625 4.1875 C-2.716875 3.795625 -1.87125 3.40375 -1 3 C-0.67 2.01 -0.34 1.02 0 0 Z " fill="#490A87" transform="translate(290,166)"/>
<path d="M0 0 C2.97 0 5.94 0 9 0 C9 3.58912412 8.33563446 4.10857029 6 6.6875 C5.443125 7.31011719 4.88625 7.93273437 4.3125 8.57421875 C3.879375 9.04472656 3.44625 9.51523438 3 10 C1.46554906 6.93109813 2.45015711 4.29905734 3 1 C2.01 0.67 1.02 0.34 0 0 Z " fill="#4C1187" transform="translate(366,224)"/>
<path d="M0 0 C1.32 0.33 2.64 0.66 4 1 C4.33 3.31 4.66 5.62 5 8 C5.66 8 6.32 8 7 8 C7 10.31 7 12.62 7 15 C3.53467745 12.68978496 3.40804609 11.92790874 2.375 8.0625 C2.13523437 7.18722656 1.89546875 6.31195313 1.6484375 5.41015625 C1.43445313 4.61480469 1.22046875 3.81945312 1 3 C0.67 2.01 0.34 1.02 0 0 Z " fill="#612E99" transform="translate(365,164)"/>
<path d="M0 0 C5.5970587 0.36069934 10.16835451 0.89394218 15 4 C16.875 6.1875 16.875 6.1875 18 8 C17.505 7.731875 17.01 7.46375 16.5 7.1875 C10.0056698 4.05977487 10.0056698 4.05977487 3 3 C2.67 4.32 2.34 5.64 2 7 C0 4 0 4 0 0 Z " fill="#481D7E" transform="translate(349,176)"/>
<path d="M0 0 C0.804375 0.185625 1.60875 0.37125 2.4375 0.5625 C3.283125 0.706875 4.12875 0.85125 5 1 C5.33 0.67 5.66 0.34 6 0 C7.99958364 -0.04080783 10.00045254 -0.04254356 12 0 C11.39816251 2.02045442 10.72693904 4.02111039 10 6 C9.01 6.495 9.01 6.495 8 7 C6.66382648 6.02471263 5.3311249 5.04466681 4 4.0625 C3.2575 3.51722656 2.515 2.97195312 1.75 2.41015625 C1.1725 1.94480469 0.595 1.47945312 0 1 C0 0.67 0 0.34 0 0 Z " fill="#41197B" transform="translate(304,239)"/>
<path d="M0 0 C0.33 0 0.66 0 1 0 C1 6.27 1 12.54 1 19 C0.67 19 0.34 19 0 19 C-1.8417395 13.35199888 -2.54775239 7.91492272 -3 2 C-2.01 2.495 -2.01 2.495 -1 3 C-0.67 2.01 -0.34 1.02 0 0 Z " fill="#48197A" transform="translate(372,175)"/>
<path d="M0 0 C0.66 0.33 1.32 0.66 2 1 C2 1.99 2 2.98 2 4 C-0.484375 6.0078125 -0.484375 6.0078125 -3.75 8.125 C-4.81734375 8.82882813 -5.8846875 9.53265625 -6.984375 10.2578125 C-9.45923669 11.68759011 -11.219128 12.5545205 -14 13 C-13.34 12.67 -12.68 12.34 -12 12 C-12 11.01 -12 10.02 -12 9 C-10.68 9 -9.36 9 -8 9 C-7.67 8.01 -7.34 7.02 -7 6 C-6.34 6 -5.68 6 -5 6 C-4.34 5.01 -3.68 4.02 -3 3 C-2.01 3 -1.02 3 0 3 C0 2.01 0 1.02 0 0 Z " fill="#2B185E" transform="translate(133,164)"/>
<path d="M0 0 C0 0.99 0 1.98 0 3 C3.35433109 2.05066101 6.69246505 1.10251165 10 0 C12.1875 0.4375 12.1875 0.4375 14 1 C12.0848421 1.81604999 10.16781166 2.62770632 8.25 3.4375 C7.18265625 3.88996094 6.1153125 4.34242188 5.015625 4.80859375 C2.6586159 5.73979553 0.47007165 6.4784072 -2 7 C-2.66 5.68 -3.32 4.36 -4 3 C-2.68 2.01 -1.36 1.02 0 0 Z " fill="#301C63" transform="translate(142,157)"/>
<path d="M0 0 C-0.99 1.485 -0.99 1.485 -2 3 C-4.609621 3.38411275 -7.0058074 3.60293197 -9.625 3.6875 C-10.68460937 3.73874023 -10.68460937 3.73874023 -11.765625 3.79101562 C-13.50985688 3.87351308 -15.25490395 3.93843335 -17 4 C-14.59327602 1.59327602 -12.88621451 1.20867825 -9.625 0.3125 C-8.66851562 0.04050781 -7.71203125 -0.23148437 -6.7265625 -0.51171875 C-4.02935339 -0.9947433 -2.55027856 -0.9004538 0 0 Z " fill="#331E6F" transform="translate(416,308)"/>
<path d="M0 0 C-0.28151916 2.12636813 -0.57553263 4.25108528 -0.875 6.375 C-1.03742188 7.55835938 -1.19984375 8.74171875 -1.3671875 9.9609375 C-2 13 -2 13 -4 15 C-4 13.02 -4 11.04 -4 9 C-3.34 9 -2.68 9 -2 9 C-2 7.02 -2 5.04 -2 3 C-2.66 3 -3.32 3 -4 3 C-4 3.66 -4 4.32 -4 5 C-4.99 5.33 -5.98 5.66 -7 6 C-7.66 5.34 -8.32 4.68 -9 4 C-2.25 0 -2.25 0 0 0 Z " fill="#45157C" transform="translate(301,191)"/>
<path d="M0 0 C1.28132813 0.00902344 2.56265625 0.01804688 3.8828125 0.02734375 C4.87023437 0.03894531 5.85765625 0.05054688 6.875 0.0625 C6.545 1.7125 6.215 3.3625 5.875 5.0625 C5.215 5.0625 4.555 5.0625 3.875 5.0625 C3.875 4.0725 3.875 3.0825 3.875 2.0625 C3.10414063 2.15789062 2.33328125 2.25328125 1.5390625 2.3515625 C0.53617187 2.46242187 -0.46671875 2.57328125 -1.5 2.6875 C-2.49773437 2.80351562 -3.49546875 2.91953125 -4.5234375 3.0390625 C-5.38195312 3.04679688 -6.24046875 3.05453125 -7.125 3.0625 C-7.785 2.4025 -8.445 1.7425 -9.125 1.0625 C-6.12186252 -0.43906874 -3.33432478 -0.03031204 0 0 Z " fill="#521D8B" transform="translate(387.125,177.9375)"/>
<path d="M0 0 C0.66 0.66 1.32 1.32 2 2 C0.3125 3.5625 0.3125 3.5625 -2 5 C-4.625 4.875 -4.625 4.875 -7 4 C-7.66 3.01 -8.32 2.02 -9 1 C-5.66429909 -1.10025613 -3.74952434 -1.18406032 0 0 Z " fill="#351B72" transform="translate(110,360)"/>
<path d="M0 0 C2.29013653 3.4352048 2.17842973 4.985331 2 9 C3.98 9.66 5.96 10.32 8 11 C8 11.33 8 11.66 8 12 C1.65492958 12.35915493 1.65492958 12.35915493 -0.9375 10.9375 C-2.59162584 7.92115289 -2.30575763 5.36333392 -2 2 C-1.34 1.34 -0.68 0.68 0 0 Z " fill="#321E5D" transform="translate(205,288)"/>
<path d="M0 0 C1.63001953 0.01353516 1.63001953 0.01353516 3.29296875 0.02734375 C4.12441406 0.03894531 4.95585937 0.05054688 5.8125 0.0625 C6.1425 1.3825 6.4725 2.7025 6.8125 4.0625 C5.4925 5.0525 4.1725 6.0425 2.8125 7.0625 C3.4725 5.4125 4.1325 3.7625 4.8125 2.0625 C-0.30541642 1.95587674 -5.11678099 2.35082014 -10.1875 3.0625 C-8.19010785 -0.9322843 -3.93646808 -0.04232761 0 0 Z " fill="#4E1F87" transform="translate(381.1875,200.9375)"/>
<path d="M0 0 C0.66 0 1.32 0 2 0 C1.67 0.66 1.34 1.32 1 2 C0.67 1.34 0.34 0.68 0 0 Z M-4 2 C-2.35 2 -0.7 2 1 2 C0.01 3.485 0.01 3.485 -1 5 C-1.18412061 7.03384016 -1.18412061 7.03384016 -0.9765625 9.23046875 C-0.925 10.03291016 -0.8734375 10.83535156 -0.8203125 11.66210938 C-0.75585938 12.49548828 -0.69140625 13.32886719 -0.625 14.1875 C-0.56828125 15.03248047 -0.5115625 15.87746094 -0.453125 16.74804688 C-0.31179176 18.83271217 -0.1571675 20.91646866 0 23 C-2.52274456 19.05688666 -2.66554839 14.79179211 -3.125 10.25 C-3.21136719 9.45722656 -3.29773438 8.66445312 -3.38671875 7.84765625 C-3.59800054 5.89916859 -3.79992467 3.94967024 -4 2 Z " fill="#480A83" transform="translate(318,194)"/>
<path d="M0 0 C0.66 0.33 1.32 0.66 2 1 C1.67 6.28 1.34 11.56 1 17 C-0.32 15.68 -1.64 14.36 -3 13 C-2.34 13 -1.68 13 -1 13 C-1.01160156 12.22914063 -1.02320313 11.45828125 -1.03515625 10.6640625 C-1.04417969 9.66117188 -1.05320312 8.65828125 -1.0625 7.625 C-1.07410156 6.62726563 -1.08570313 5.62953125 -1.09765625 4.6015625 C-1 2 -1 2 0 0 Z " fill="#55208C" transform="translate(273,176)"/>
<path d="M0 0 C0.33 0.99 0.66 1.98 1 3 C1.763125 2.505 2.52625 2.01 3.3125 1.5 C6 0 6 0 9 0 C9.33 0.99 9.66 1.98 10 3 C8 5 8 5 5.1875 5.375 C1.33694545 4.92199358 -0.21801758 3.6183364 -3 1 C-2.01 0.67 -1.02 0.34 0 0 Z " fill="#48127E" transform="translate(358,170)"/>
<path d="M0 0 C-0.66 1.32 -1.32 2.64 -2 4 C-4.64 4 -7.28 4 -10 4 C-9.34 3.01 -8.68 2.02 -8 1 C-8.66 0.34 -9.32 -0.32 -10 -1 C-5.92224809 -1.9267618 -3.57818963 -2.33958553 0 0 Z " fill="#4F0595" transform="translate(328,159)"/>
<path d="M0 0 C1.65 0.33 3.3 0.66 5 1 C3.515 2.485 3.515 2.485 2 4 C2.66 4.33 3.32 4.66 4 5 C3.34 5 2.68 5 2 5 C2 5.66 2 6.32 2 7 C1.01 7 0.02 7 -1 7 C-1.33 7.66 -1.66 8.32 -2 9 C-2.66 8.34 -3.32 7.68 -4 7 C-3.67 6.01 -3.34 5.02 -3 4 C-2.34 4 -1.68 4 -1 4 C-0.67 2.68 -0.34 1.36 0 0 Z " fill="#361C72" transform="translate(138,365)"/>
<path d="M0 0 C1.32 0.33 2.64 0.66 4 1 C4 2.65 4 4.3 4 6 C4.66 6.33 5.32 6.66 6 7 C5.34 7 4.68 7 4 7 C4.10062489 13.77879847 4.10062489 13.77879847 7.0625 19.625 C7.701875 20.07875 8.34125 20.5325 9 21 C7.35 21 5.7 21 4 21 C2.16564191 17.33128382 2.62663162 12.74726291 2.48242188 8.67773438 C2.39109432 6.78053375 2.20286566 4.88853289 2 3 C1.34 2.67 0.68 2.34 0 2 C0 1.34 0 0.68 0 0 Z " fill="#2A1A54" transform="translate(352,344)"/>
<path d="M0 0 C2.64 0.66 5.28 1.32 8 2 C8.33 1.34 8.66 0.68 9 0 C9 0.66 9 1.32 9 2 C10.051875 1.67 11.10375 1.34 12.1875 1 C15.38873357 0.16033218 17.7411008 -0.19750904 21 0 C17.82980294 3.17019706 14.69657371 3.70390812 10.39453125 4.08203125 C6.49026935 3.94828003 3.53711763 2.60778074 0 1 C0 0.67 0 0.34 0 0 Z " fill="#2A195E" transform="translate(321,363)"/>
<path d="M0 0 C0 0.66 0 1.32 0 2 C-1.6210103 2.69685498 -3.24696066 3.38222861 -4.875 4.0625 C-5.77992188 4.44535156 -6.68484375 4.82820313 -7.6171875 5.22265625 C-10 6 -10 6 -12 5 C-11 2 -11 2 -9.25 0.875 C-3.0625 -1.53125 -3.0625 -1.53125 0 0 Z " fill="#351D74" transform="translate(139,349)"/>
<path d="M0 0 C0 1.98 0 3.96 0 6 C-0.928125 5.649375 -1.85625 5.29875 -2.8125 4.9375 C-5.9802953 3.67617372 -5.9802953 3.67617372 -9 5 C-9.66 4.34 -10.32 3.68 -11 3 C-4.5 0 -4.5 0 0 0 Z " fill="#2F1B65" transform="translate(388,273)"/>
<path d="M0 0 C0.33 0 0.66 0 1 0 C1.66 5.94 2.32 11.88 3 18 C2.34 18 1.68 18 1 18 C0.67 18.99 0.34 19.98 0 21 C-1.25818438 13.87028851 -0.71148265 7.18050184 0 0 Z " fill="#4A1B7A" transform="translate(274,180)"/>
<path d="M0 0 C1.05524799 4.22099197 0.99219034 4.89096719 -0.6875 8.625 C-1.02136719 9.40101563 -1.35523438 10.17703125 -1.69921875 10.9765625 C-3.20299051 13.31576301 -4.44429008 13.9992378 -7 15 C-7 14.34 -7 13.68 -7 13 C-6.34 13 -5.68 13 -5 13 C-5.33 11.35 -5.66 9.7 -6 8 C-5.01 8 -4.02 8 -3 8 C-2.01 5.36 -1.02 2.72 0 0 Z " fill="#421077" transform="translate(309,212)"/>
<path d="M0 0 C4.12797305 0.60705486 7.37438822 1.93999331 11 4 C11.33 4.66 11.66 5.32 12 6 C9.03 5.01 6.06 4.02 3 3 C3 4.98 3 6.96 3 9 C0.87491756 5.81237635 0.4979837 3.73487777 0 0 Z " fill="#441579" transform="translate(336,206)"/>
<path d="M0 0 C1.65 0 3.3 0 5 0 C4.979375 1.19625 4.95875 2.3925 4.9375 3.625 C4.93117429 7.18004869 5.30111125 10.50555624 6 14 C3.52813545 11.03653214 2.33751639 8.45958311 1.3125 4.75 C1.06113281 3.85796875 0.80976563 2.9659375 0.55078125 2.046875 C0.36902344 1.37140625 0.18726563 0.6959375 0 0 Z " fill="#421278" transform="translate(344,190)"/>
<path d="M0 0 C0.66 0 1.32 0 2 0 C1.67 1.32 1.34 2.64 1 4 C-7.03501094 5.45295405 -7.03501094 5.45295405 -11.0625 3.5625 C-11.701875 3.046875 -12.34125 2.53125 -13 2 C-10.21155162 0.60577581 -7.96567945 1.30413331 -4.97265625 1.74609375 C-2.83557926 2.06382987 -2.83557926 2.06382987 0 2 C0 1.34 0 0.68 0 0 Z " fill="#4E1686" transform="translate(270,193)"/>
<path d="M0 0 C0 2.6898277 -0.31989703 4.34719916 -1.0625 6.875 C-1.97694062 10.31203542 -1.7958057 12.51835007 -1 16 C-1.66 16.99 -2.32 17.98 -3 19 C-4.57540724 14.27377827 -5.19998973 8.66722608 -3.10546875 4.01171875 C-2 2.375 -2 2.375 0 0 Z " fill="#33205C" transform="translate(319,340)"/>
<path d="M0 0 C0 0.66 0 1.32 0 2 C-0.66 2 -1.32 2 -2 2 C-2.2475 2.61875 -2.495 3.2375 -2.75 3.875 C-4.21956837 6.37326623 -5.28564404 7.06694014 -8 8 C-8.66 7.67 -9.32 7.34 -10 7 C-8.60449526 2.81348579 -4.64858615 0 0 0 Z " fill="#450F81" transform="translate(310,207)"/>
<path d="M0 0 C0.66 0 1.32 0 2 0 C1.67 0.99 1.34 1.98 1 3 C0.34 3 -0.32 3 -1 3 C-0.67 5.31 -0.34 7.62 0 10 C3.3 9.67 6.6 9.34 10 9 C8 11 8 11 5.87109375 11.23046875 C5.06800781 11.21628906 4.26492188 11.20210937 3.4375 11.1875 C2.22900391 11.17783203 2.22900391 11.17783203 0.99609375 11.16796875 C-1 11 -1 11 -2 10 C-2.27314815 4.26388889 -2.27314815 4.26388889 -2 2 C-1.34 1.34 -0.68 0.68 0 0 Z " fill="#481680" transform="translate(376,180)"/>
<path d="M0 0 C0.66 0.33 1.32 0.66 2 1 C1.01 3.97 0.02 6.94 -1 10 C-0.01 10.33 0.98 10.66 2 11 C2 11.66 2 12.32 2 13 C-0.475 12.01 -0.475 12.01 -3 11 C-3.32613618 6.32538149 -2.70582788 3.83325617 0 0 Z " fill="#481E83" transform="translate(280,184)"/>
<path d="M0 0 C0.99 0.33 1.98 0.66 3 1 C2.525625 2.051875 2.05125 3.10375 1.5625 4.1875 C0.30676259 7.10175851 -0.52234381 9.84746914 -1 13 C-1.66 13 -2.32 13 -3 13 C-2.88557539 11.39504433 -2.75805306 9.79101881 -2.625 8.1875 C-2.55539062 7.29417969 -2.48578125 6.40085938 -2.4140625 5.48046875 C-2 3 -2 3 0 0 Z " fill="#5F2A99" transform="translate(278,163)"/>
<path d="M0 0 C0.66 0 1.32 0 2 0 C2.33 1.65 2.66 3.3 3 5 C4.32 4.67 5.64 4.34 7 4 C6.67 5.32 6.34 6.64 6 8 C4.68 8.33 3.36 8.66 2 9 C0 3.375 0 3.375 0 0 Z " fill="#550E93" transform="translate(350,216)"/>
<path d="M0 0 C1.32 0 2.64 0 4 0 C4.625 1.8125 4.625 1.8125 5 4 C4.01 5.485 4.01 5.485 3 7 C2.01 7 1.02 7 0 7 C0 6.01 0 5.02 0 4 C-0.66 3.67 -1.32 3.34 -2 3 C-1.34 2.34 -0.68 1.68 0 1 C0 0.67 0 0.34 0 0 Z " fill="#510097" transform="translate(358,182)"/>
<path d="M0 0 C0.96885329 2.61590389 1.15595491 3.64910145 0 6.25 C-1.41850785 10.15089658 -0.68951261 12.93187561 0 17 C-0.99 16.67 -1.98 16.34 -3 16 C-3.32712342 9.86946489 -3.39366878 5.37330889 0 0 Z " fill="#4E1A86" transform="translate(315,144)"/>
<path d="M0 0 C6.93 0 13.86 0 21 0 C21 0.66 21 1.32 21 2 C19.02 2.33 17.04 2.66 15 3 C15 2.34 15 1.68 15 1 C10.05 1 5.1 1 0 1 C0 0.67 0 0.34 0 0 Z " fill="#34225F" transform="translate(161,147)"/>
<path d="M0 0 C4.86896303 0.59619955 9.32790951 1.56976822 14 3 C14 3.99 14 4.98 14 6 C12.41375765 5.57316761 10.8310902 5.13303842 9.25 4.6875 C8.36828125 4.44386719 7.4865625 4.20023437 6.578125 3.94921875 C3.94227495 2.97874669 2.14592674 1.78994356 0 0 Z " fill="#311C5D" transform="translate(104,272)"/>
<path d="M0 0 C0.33 0 0.66 0 1 0 C1.33693273 6.96327638 0.3030887 12.43345544 -2 19 C-3.03115279 15.73086376 -2.9638984 13.13958652 -2.5625 9.75 C-2.46066406 8.85796875 -2.35882813 7.9659375 -2.25390625 7.046875 C-2.17011719 6.37140625 -2.08632812 5.6959375 -2 5 C-1.67 5 -1.34 5 -1 5 C-0.67 3.35 -0.34 1.7 0 0 Z " fill="#2D1B5A" transform="translate(199,163)"/>
<path d="M0 0 C0.33 0 0.66 0 1 0 C1.33 3.96 1.66 7.92 2 12 C3.32 12.33 4.64 12.66 6 13 C4.02 13 2.04 13 0 13 C-1.57170996 9.85658007 -1.23175783 6.44228549 -1 3 C-0.67 2.01 -0.34 1.02 0 0 Z " fill="#4C1E82" transform="translate(277,150)"/>
<path d="M0 0 C5.08938811 1.59043379 8.87456643 4.7446951 13 8 C12.01 8.33 11.02 8.66 10 9 C9.34 8.67 8.68 8.34 8 8 C8 7.34 8 6.68 8 6 C7.01 6 6.02 6 5 6 C5 5.34 5 4.68 5 4 C2.525 3.01 2.525 3.01 0 2 C0 1.34 0 0.68 0 0 Z " fill="#4E1986" transform="translate(301,230)"/>
<path d="M0 0 C0.99 0 1.98 0 3 0 C3 0.66 3 1.32 3 2 C3.99 2 4.98 2 6 2 C6 2.66 6 3.32 6 4 C6.66 4.33 7.32 4.66 8 5 C8 5.99 8 6.98 8 8 C7.34 8 6.68 8 6 8 C6 7.34 6 6.68 6 6 C4.35 5.67 2.7 5.34 1 5 C0.67 3.35 0.34 1.7 0 0 Z " fill="#4A058F" transform="translate(303,234)"/>
<path d="M0 0 C1.65 0 3.3 0 5 0 C5 0.99 5 1.98 5 3 C5.3062434 4.33981486 5.63451555 5.67511887 6 7 C4.35 6.67 2.7 6.34 1 6 C0 3 0 3 0 0 Z " fill="#520297" transform="translate(370,205)"/>
<path d="M0 0 C1.11375 0.3403125 1.11375 0.3403125 2.25 0.6875 C-2.89285714 5.11607143 -2.89285714 5.11607143 -6.75 5.6875 C-6.75 2.6875 -6.75 2.6875 -5.0625 0.9375 C-2.75 -0.3125 -2.75 -0.3125 0 0 Z " fill="#361A72" transform="translate(280.75,359.3125)"/>
<path d="M0 0 C1.9375 0.3125 1.9375 0.3125 4 1 C4.33 1.99 4.66 2.98 5 4 C4.67 4.66 4.34 5.32 4 6 C4.99 6.33 5.98 6.66 7 7 C6.01 7.495 6.01 7.495 5 8 C3.02 6.68 1.04 5.36 -1 4 C-0.67 2.68 -0.34 1.36 0 0 Z " fill="#2F1C63" transform="translate(66,250)"/>
<path d="M0 0 C0.33 0.66 0.66 1.32 1 2 C1.99 2.33 2.98 2.66 4 3 C4 3.66 4 4.32 4 5 C-0.29 5 -4.58 5 -9 5 C-9.33 4.34 -9.66 3.68 -10 3 C-9.01 2.67 -8.02 2.34 -7 2 C-7 2.66 -7 3.32 -7 4 C-3.535 3.505 -3.535 3.505 0 3 C0 2.01 0 1.02 0 0 Z " fill="#2E1C5E" transform="translate(305,360)"/>
<path d="M0 0 C1.32 0.33 2.64 0.66 4 1 C1.69 3.31 -0.62 5.62 -3 8 C-3.66 7.34 -4.32 6.68 -5 6 C-2.05263158 1.57894737 -2.05263158 1.57894737 0 0 Z " fill="#2F1B5F" transform="translate(85,204)"/>
<path d="M0 0 C2.69082872 0.17635452 5.32851446 0.61835921 8 1 C8 2.65 8 4.3 8 6 C4.22454612 4.90931332 1.52956528 4.0916909 -1 1 C-0.67 0.67 -0.34 0.34 0 0 Z " fill="#321C5F" transform="translate(74,257)"/>
<path d="M0 0 C0 3.48961209 -0.90379374 5.11480295 -2.5 8.1875 C-2.9640625 9.08855469 -3.428125 9.98960937 -3.90625 10.91796875 C-4.2671875 11.60503906 -4.628125 12.29210937 -5 13 C-5.33 13 -5.66 13 -6 13 C-5.63076923 5.73846154 -5.63076923 5.73846154 -2.4375 2 C-1.633125 1.34 -0.82875 0.68 0 0 Z " fill="#49147E" transform="translate(291,196)"/>
<path d="M0 0 C-3.5087188 3.09592835 -6.49197399 4.74194623 -11 6 C-11 5.34 -11 4.68 -11 4 C-10.01 4 -9.02 4 -8 4 C-8 3.34 -8 2.68 -8 2 C-4.77208445 -0.1519437 -3.71599191 -0.20086443 0 0 Z " fill="#2C1C5C" transform="translate(148,368)"/>
<path d="M0 0 C1.32 0.33 2.64 0.66 4 1 C3.0022242 3.99332739 2.2477975 4.94766315 0 7 C-0.99 6.67 -1.98 6.34 -3 6 C-2.01 4.02 -1.02 2.04 0 0 Z " fill="#361C70" transform="translate(160,220)"/>
<path d="M0 0 C1.875 0.25 1.875 0.25 4 1 C5.3125 2.8125 5.3125 2.8125 6 5 C5.54296875 7.13671875 5.54296875 7.13671875 5 9 C4.16094435 7.87926138 3.32892169 6.75325453 2.5 5.625 C2.0359375 4.99851563 1.571875 4.37203125 1.09375 3.7265625 C0 2 0 2 0 0 Z " fill="#500692" transform="translate(284,215)"/>
<path d="M0 0 C0.99 0.99 1.98 1.98 3 3 C0.69 4.98 -1.62 6.96 -4 9 C-3.6875 6.625 -3.6875 6.625 -3 4 C-2.01 3.34 -1.02 2.68 0 2 C0 1.34 0 0.68 0 0 Z " fill="#301D63" transform="translate(172,344)"/>
<path d="M0 0 C1.67542976 0.28604898 3.34385343 0.61781233 5 1 C1.55549263 3.29633824 -0.93812283 3.54016485 -5 4 C-5 3.34 -5 2.68 -5 2 C-4.360625 1.855625 -3.72125 1.71125 -3.0625 1.5625 C-1.02454854 1.18992819 -1.02454854 1.18992819 0 0 Z " fill="#361B76" transform="translate(335,361)"/>
<path d="M0 0 C0.66 0 1.32 0 2 0 C2.66 1.98 3.32 3.96 4 6 C3.01 6.33 2.02 6.66 1 7 C0.01 6.34 -0.98 5.68 -2 5 C-1.34 5 -0.68 5 0 5 C0 3.35 0 1.7 0 0 Z " fill="#3C207A" transform="translate(355,339)"/>
<path d="M0 0 C4.78504172 2.48454089 7.86077669 4.47951843 11 9 C7.03935893 7.25731793 3.25563451 4.85325271 0 2 C0 1.34 0 0.68 0 0 Z " fill="#30205B" transform="translate(169,290)"/>
<path d="M0 0 C0.66 0.33 1.32 0.66 2 1 C-0.97 3.64 -3.94 6.28 -7 9 C-7.33 7.68 -7.66 6.36 -8 5 C-6.71475739 4.13619741 -5.42157581 3.28419631 -4.125 2.4375 C-3.04605469 1.72400391 -3.04605469 1.72400391 -1.9453125 0.99609375 C-1.30335937 0.66738281 -0.66140625 0.33867187 0 0 Z " fill="#2C1756" transform="translate(110,183)"/>
<path d="M0 0 C3.65316671 1.24976756 4.78065836 1.67098753 7 5 C5.35 4.67 3.7 4.34 2 4 C1.67 4.66 1.34 5.32 1 6 C0.67 4.02 0.34 2.04 0 0 Z " fill="#4F188E" transform="translate(354,137)"/>
<path d="M0 0 C2.12999997 3.79039366 2.16702456 6.65736138 2 11 C1.01 11.495 1.01 11.495 0 12 C-1.03159626 8.90521121 -0.97482862 7.47368607 -0.5625 4.3125 C-0.46066406 3.50425781 -0.35882813 2.69601562 -0.25390625 1.86328125 C-0.17011719 1.24839844 -0.08632812 0.63351562 0 0 Z " fill="#2B1B5B" transform="translate(187,310)"/>
<path d="M0 0 C0.99 0 1.98 0 3 0 C3 1.65 3 3.3 3 5 C2.01 5.33 1.02 5.66 0 6 C0 5.01 0 4.02 0 3 C-0.66 2.67 -1.32 2.34 -2 2 C-1.34 1.34 -0.68 0.68 0 0 Z " fill="#4C0A88" transform="translate(342,234)"/>
<path d="M0 0 C3 4 3 4 2.6875 7.75 C2.460625 8.8225 2.23375 9.895 2 11 C1.34 11 0.68 11 0 11 C0 7.37 0 3.74 0 0 Z " fill="#420E7D" transform="translate(325,144)"/>
<path d="M0 0 C-1.32 0.33 -2.64 0.66 -4 1 C-4 1.66 -4 2.32 -4 3 C-7.09354597 3.99435406 -8.90279155 3.87840996 -12 3 C-10.3789897 2.30314502 -8.75303934 1.61777139 -7.125 0.9375 C-6.22007813 0.55464844 -5.31515625 0.17179687 -4.3828125 -0.22265625 C-2 -1 -2 -1 0 0 Z " fill="#2B1A59" transform="translate(105,360)"/>
<path d="M0 0 C1.65 0 3.3 0 5 0 C4.67 0.99 4.34 1.98 4 3 C1.4375 4.1875 1.4375 4.1875 -1 5 C-0.67 3.35 -0.34 1.7 0 0 Z " fill="#331E6D" transform="translate(153,342)"/>
<path d="M0 0 C2.24578708 2.24578708 2.85650419 4.069792 4 7 C4.99 8.485 4.99 8.485 6 10 C2.19118361 8.55527654 0.70257114 6.67396929 -1 3 C-0.67 2.01 -0.34 1.02 0 0 Z " fill="#44167D" transform="translate(340,215)"/>
<path d="M0 0 C1.32 0.33 2.64 0.66 4 1 C1.3534665 3.6465335 -1.56221264 4.59941997 -5 6 C-4.34 4.68 -3.68 3.36 -3 2 C-2.01 2 -1.02 2 0 2 C0 1.34 0 0.68 0 0 Z " fill="#2F1D55" transform="translate(185,335)"/>
<path d="M0 0 C-0.33 1.32 -0.66 2.64 -1 4 C-1.66 3.34 -2.32 2.68 -3 2 C-6.09926819 2.32198966 -6.09926819 2.32198966 -9 3 C-6.40821726 0.40821726 -3.54324677 -1.77162338 0 0 Z " fill="#2C1951" transform="translate(215,307)"/>
<path d="M0 0 C1.98 0 3.96 0 6 0 C5.67 0.99 5.34 1.98 5 3 C2.9375 3.6875 2.9375 3.6875 1 4 C0.67 2.68 0.34 1.36 0 0 Z " fill="#3E0980" transform="translate(310,239)"/>
<path d="M0 0 C0.82810826 3.31243305 1.09278428 5.65976579 1 9 C-0.32 9 -1.64 9 -3 9 C-2.01 6.03 -1.02 3.06 0 0 Z " fill="#2F1C5E" transform="translate(179,182)"/>
<path d="M0 0 C0.66 0.33 1.32 0.66 2 1 C0.1875 3 0.1875 3 -2 5 C-2.99 5 -3.98 5 -5 5 C-4.1875 3.0625 -4.1875 3.0625 -3 1 C-2.01 0.67 -1.02 0.34 0 0 Z " fill="#281E58" transform="translate(263,316)"/>
<path d="M0 0 C1.98 0.66 3.96 1.32 6 2 C2.77208445 4.1519437 1.71599191 4.20086443 -2 4 C-1.34 2.68 -0.68 1.36 0 0 Z " fill="#321C63" transform="translate(154,282)"/>
<path d="M0 0 C0.66 0 1.32 0 2 0 C2 2.64 2 5.28 2 8 C1.01 8 0.02 8 -1 8 C-0.67 5.36 -0.34 2.72 0 0 Z " fill="#551B98" transform="translate(296,218)"/>
<path d="M0 0 C0 0.66 0 1.32 0 2 C-2.95664519 3.4783226 -5.74229737 3.06032783 -9 3 C-6.15236477 0.15236477 -3.96383452 0 0 0 Z " fill="#4D1F84" transform="translate(294,179)"/>
</svg>
